<svg xmlns="http://www.w3.org/2000/svg" width="22.0px" height="22.0px" viewBox="0 0 66 66" version="1.1">
    <title>edit (3)</title>
    <defs>
        <linearGradient x1="-5.69634103%" y1="31.4018263%" x2="50%" y2="159.221168%" id="linearGradient-1">
            <stop stop-color="#FFFFFF" offset="0%" />
            <stop stop-color="#FFFFFF" stop-opacity="0.825792859" offset="100%" />
        </linearGradient>
        <linearGradient x1="-0.083659816%" y1="31.4018263%" x2="50%" y2="159.221168%" id="linearGradient-2">
            <stop stop-color="#FFFFFF" offset="0%" />
            <stop stop-color="#FFFFFF" stop-opacity="0.825792859" offset="100%" />
        </linearGradient>
    </defs>
    <g id="Page-1" stroke="none" stroke-width="1" fill="none" fill-rule="evenodd">
        <g id="Splashscreen-Copy-98" transform="translate(-513, -2398)" fill-rule="nonzero">
            <g id="Group-2-Copy-5" transform="translate(420, 2341)">
                <g id="edit-(3)" transform="translate(93, 57)">
                    <path d="M28.3202571,26.5437884 L26.0582704,36.6365426 C25.8670599,37.5586978 26.1530329,38.5151384 26.8190754,39.181066 C27.4851179,39.8469935 28.4417236,40.1329171 29.364038,39.9417397 L39.4585343,37.6801434 C39.9700601,37.5657153 40.4385878,37.3084535 40.8096353,36.9382733 L63.4599574,14.2890921 C66.7664513,11.0256435 66.8562628,5.71783751 63.6620689,2.34443101 C60.2906233,-0.858477948 54.9737599,-0.768565055 51.7125773,2.54650754 L29.0650238,25.1873843 C28.6928565,25.559543 28.4345063,26.0300624 28.3202571,26.5437884 L28.3202571,26.5437884 Z M33.5474675,28.5396403 L55.6302165,6.4607024 C56.203098,5.87381625 56.9810338,5.53154388 57.8008377,5.50568314 C58.5206359,5.49272997 59.2166894,5.7631498 59.7388924,6.25862586 C60.244151,6.77434952 60.5154116,7.47490169 60.4891965,8.19634608 C60.4626414,9.01529384 60.1215491,9.79253293 59.536781,10.3665927 L37.454032,32.4455306 L32.4095525,33.5777128 L33.5474675,28.5396403 Z" id="Shape" fill="url(#linearGradient-1)" />
                    <path d="M13.75,66 L41.25,66 C48.8401462,65.9908688 54.9909082,59.8134801 55,52.1904762 L55,36.9447619 C55,35.419404 53.7687831,34.1828571 52.25,34.1828571 C50.7312169,34.1828571 49.5,35.419404 49.5,36.9447619 L49.5,52.1904762 C49.5,56.7665498 45.8063492,60.4761905 41.25,60.4761905 L13.75,60.4761905 C9.19365081,60.4761905 5.5,56.7665498 5.5,52.1904762 L5.5,21.8095238 C5.5,17.2334502 9.19365081,13.5238095 13.75,13.5238095 L31.68,13.5238095 C33.1987831,13.5238095 34.43,12.2872626 34.43,10.7619048 C34.43,9.23654688 33.1987831,8 31.68,8 L13.75,8 C6.15985383,8.00913118 0.00909181992,14.1865199 0,21.8095238 L0,52.1904762 C0.00909181992,59.8134801 6.15985383,65.9908688 13.75,66 Z" id="Path" fill="url(#linearGradient-2)" />
                </g>
            </g>
        </g>
    </g>
</svg>