<?xml version="1.0" encoding="UTF-8"?>
<svg width="19px" height="19px" viewBox="0 0 19 19" version="1.1" xmlns="http://www.w3.org/2000/svg" xmlns:xlink="http://www.w3.org/1999/xlink">
    <title>qr-code (5)</title>
    <g id="Page-1" stroke="none" stroke-width="1" fill="none" fill-rule="evenodd">
        <g id="Splashscreen-Copy-56" transform="translate(-526, -834)" fill="#727272" fill-rule="nonzero">
            <g id="qr-code-(5)" transform="translate(526, 834)">
                <path d="M0.59375,4.20533333 C0.92166907,4.20533333 1.1875,3.9395024 1.1875,3.61158333 L1.1875,1.1875 L3.61158333,1.1875 C3.9395024,1.1875 4.20533333,0.92166907 4.20533333,0.59375 C4.20533333,0.26583093 3.9395024,0 3.61158333,0 L0.59375,0 C0.26583093,0 0,0.26583093 0,0.59375 L0,3.61158333 C0,3.9395024 0.26583093,4.20533333 0.59375,4.20533333 Z M18.40625,0 L15.3884167,0 C15.0604976,0 14.7946667,0.26583093 14.7946667,0.59375 C14.7946667,0.92166907 15.0604976,1.1875 15.3884167,1.1875 L17.8125,1.1875 L17.8125,3.61158333 C17.8125,3.9395024 18.0783309,4.20533333 18.40625,4.20533333 C18.7341691,4.20533333 19,3.9395024 19,3.61158333 L19,0.59375 C19,0.26583093 18.7341691,0 18.40625,0 L18.40625,0 Z M3.61158333,17.8125 L1.1875,17.8125 L1.1875,15.3884167 C1.1875,15.0604976 0.92166907,14.7946667 0.59375,14.7946667 C0.26583093,14.7946667 0,15.0604976 0,15.3884167 L0,18.40625 C0,18.7341691 0.26583093,19 0.59375,19 L3.61158333,19 C3.9395024,19 4.20533333,18.7341691 4.20533333,18.40625 C4.20533333,18.0783309 3.9395024,17.8125 3.61158333,17.8125 L3.61158333,17.8125 Z M18.40625,14.7946667 C18.0783309,14.7946667 17.8125,15.0604976 17.8125,15.3884167 L17.8125,17.8125 L15.3884167,17.8125 C15.0604976,17.8125 14.7946667,18.0783309 14.7946667,18.40625 C14.7946667,18.7341691 15.0604976,19 15.3884167,19 L18.40625,19 C18.7341691,19 19,18.7341691 19,18.40625 L19,15.3884167 C19,15.0604976 18.7341691,14.7946667 18.40625,14.7946667 L18.40625,14.7946667 Z M7.96575,3.06770833 L3.61158333,3.06770833 C3.28366426,3.06770833 3.01783333,3.33353926 3.01783333,3.66145833 L3.01783333,8.015625 C3.01783333,8.34354407 3.28366426,8.609375 3.61158333,8.609375 L7.96575,8.609375 C8.29366907,8.609375 8.5595,8.34354407 8.5595,8.015625 L8.5595,3.66145833 C8.5595,3.33353926 8.29366907,3.06770833 7.96575,3.06770833 L7.96575,3.06770833 Z M7.372,7.421875 L4.20533333,7.421875 L4.20533333,4.25520833 L7.372,4.25520833 L7.372,7.421875 Z M7.96575,10.4406979 L3.61158333,10.4406979 C3.28366426,10.4406979 3.01783333,10.7065288 3.01783333,11.0344479 L3.01783333,15.3886146 C3.01783333,15.7165337 3.28366426,15.9823646 3.61158333,15.9823646 L7.96575,15.9823646 C8.29366907,15.9823646 8.55950003,15.7165337 8.55950003,15.3886146 L8.55950003,11.0344479 C8.55950003,10.8769413 8.49702006,10.7258679 8.38566464,10.6144753 C8.27430923,10.5030828 8.12325659,10.4405 7.96575,10.4405 L7.96575,10.4406979 Z M7.372,14.7948646 L4.20533333,14.7948646 L4.20533333,11.6281979 L7.372,11.6281979 L7.372,14.7948646 Z M11.03425,8.609375 L15.3884167,8.609375 C15.7163357,8.609375 15.9821667,8.34354407 15.9821667,8.015625 L15.9821667,3.66145833 C15.9821667,3.33353926 15.7163357,3.06770833 15.3884167,3.06770833 L11.03425,3.06770833 C10.7063309,3.06770833 10.4405,3.33353926 10.4405,3.66145833 L10.4405,8.015625 C10.4405,8.34354407 10.7063309,8.609375 11.03425,8.609375 L11.03425,8.609375 Z M11.628,4.25520833 L14.7946667,4.25520833 L14.7946667,7.421875 L11.628,7.421875 L11.628,4.25520833 Z M11.03425,12.8141542 C11.3621691,12.8141542 11.628,12.5483232 11.628,12.2204042 L11.628,11.628 L12.6674583,11.628 C12.9953774,11.628 13.2612083,11.3621691 13.2612083,11.03425 C13.2612083,10.7063309 12.9953774,10.4405 12.6674583,10.4405 L11.03425,10.4405 C10.7063309,10.4405 10.4405,10.7063309 10.4405,11.03425 L10.4405,12.2202063 C10.4405,12.5481253 10.7063309,12.8139563 11.03425,12.8139563 L11.03425,12.8141542 Z M14.7946667,15.3886146 C14.7946667,15.7165336 15.0604976,15.9823645 15.3884167,15.9823645 C15.7163357,15.9823645 15.9821667,15.7165336 15.9821667,15.3886146 L15.9821667,13.2115313 C15.9821667,12.8836122 15.7163357,12.6177813 15.3884167,12.6177813 L13.2113333,12.6177813 C12.8834143,12.6177813 12.6175833,12.8836122 12.6175833,13.2115313 C12.6175833,13.5394503 12.8834143,13.8052813 13.2113333,13.8052813 L14.7946667,13.8052813 L14.7946667,15.3886146 Z M12.271625,14.7948646 L11.03425,14.7948646 C10.7063309,14.7948646 10.4405,15.0606955 10.4405,15.3886146 C10.4405,15.7165336 10.7063309,15.9823646 11.03425,15.9823646 L12.271625,15.9823646 C12.5995987,15.9823646 12.865474,15.7164893 12.865474,15.3885156 C12.865474,15.0605419 12.5995987,14.7946667 12.271625,14.7946667 L12.271625,14.7948646 Z M15.3884167,9.41438125 C15.0604976,9.41438125 14.7946667,9.68021218 14.7946667,10.0081313 L14.7946667,11.03425 C14.7946667,11.3621691 15.0604976,11.628 15.3884167,11.628 C15.7163357,11.628 15.9821667,11.3621691 15.9821667,11.03425 L15.9821667,10.0079333 C15.9821667,9.68001426 15.7163357,9.41418333 15.3884167,9.41418333 L15.3884167,9.41438125 Z M10.3945833,13.5177083 C10.2812104,13.2627831 10.0061085,13.1206786 9.73260097,13.17576 C9.45909345,13.2308414 9.2604423,13.4683544 9.25458333,13.7472917 C9.24945198,13.9915883 9.39401277,14.2142496 9.61925376,14.3089792 C9.84449476,14.4037087 10.1047426,14.3512977 10.2757575,14.1767666 C10.4467724,14.0022355 10.4938768,13.740975 10.3945833,13.5177083 L10.3945833,13.5177083 Z M10.3945833,9.78104167 C10.3005049,9.56372689 10.0859408,9.42341437 9.84913799,9.42434727 C9.61233516,9.42528952 9.39888884,9.56729666 9.30653418,9.78534958 C9.21417952,10.0034025 9.26069896,10.2555162 9.42479167,10.42625 C9.62319199,10.6326799 9.94091656,10.6674771 10.1792942,10.5088829 C10.4176719,10.3502888 10.5083311,10.0437914 10.3945833,9.78104167 Z" id="Shape"></path>
            </g>
        </g>
    </g>
</svg>