<?xml version="1.0" encoding="UTF-8"?>
<svg width="26px" height="26px" viewBox="0 0 26 26" version="1.1" xmlns="http://www.w3.org/2000/svg" xmlns:xlink="http://www.w3.org/1999/xlink">
    <title>Shape</title>
    <g id="Page-1" stroke="none" stroke-width="1" fill="none" fill-rule="evenodd">
        <g id="Splashscreen-Copy-63" transform="translate(-208, -3091)" fill="#62DD3C" fill-rule="nonzero">
            <g id="Group" transform="translate(125, 3022)">
                <g id="fast-forward-double-right-arrows-symbol-(2)" transform="translate(83, 69)">
                    <path d="M25.3602488,11.4562076 L14.5451546,0.639824855 C13.692153,-0.213274952 12.3087179,-0.213274952 11.4557163,0.639824855 C10.6027148,1.49292466 10.6027148,2.87651922 11.4557163,3.72961903 L20.7250931,13.0000212 L11.4557163,22.270381 C10.6027148,23.1234808 10.6027148,24.5070753 11.4557163,25.3601751 C12.3087179,26.213275 13.692153,26.213275 14.5451546,25.3601751 L25.3602488,14.5438349 C26.2132504,13.6928595 26.2132504,12.3093074 25.3602488,11.4562076 Z M12.3563405,10.8012254 L3.77007859,1.75060932 C2.90730613,0.842318688 1.5098518,0.842318688 0.647079344,1.75060932 C-0.215693115,2.65889996 -0.215693115,4.13235488 0.647079344,5.04175018 L7.67241512,12.4467959 L0.647079344,19.8518415 C-0.215693115,20.7601747 -0.215693115,22.2346493 0.647079344,23.1429824 C1.5098518,24.0513155 2.90730613,24.0513155 3.77007859,23.1429824 L12.3563405,14.0923663 C13.2191129,13.1840756 13.2191129,11.7106207 12.3563405,10.8012254 Z" id="Shape"></path>
                </g>
            </g>
        </g>
    </g>
</svg>