<?xml version="1.0" encoding="UTF-8"?>
<svg width="30px" height="24px" viewBox="0 0 30 24" version="1.1" xmlns="http://www.w3.org/2000/svg" xmlns:xlink="http://www.w3.org/1999/xlink">
    <title>inbox</title>
    <g id="Page-1" stroke="none" stroke-width="1" fill="none" fill-rule="evenodd">
        <g id="Splashscreen-Copy-74" transform="translate(-953, -1059)" fill="#FFFFFF" fill-rule="nonzero">
            <g id="inbox" transform="translate(953, 1059)">
                <path d="M18.4387541,16 L11.8944633,16 C11.4012161,16 11,16.4227593 11,16.9424912 L11,19.0574478 C11,19.5771797 11.4012161,20 11.8944633,20 L18.4388121,20 C18.9320593,20 19.3333333,19.5772407 19.3333333,19.0574478 L19.3333333,16.9424912 C19.3332174,16.4228203 18.9320013,16 18.4387541,16 Z M18.1831766,18.7882082 L12.1499828,18.7882082 L12.1499828,17.2118529 L18.1831766,17.2118529 L18.1831766,18.7882082 Z" id="Shape"></path>
                <path d="M29.705625,11.1367991 L29.7149414,11.1321113 L25.3552734,2.51219036 C25.002832,1.81546655 24.2991211,1.3827243 23.5185938,1.3827243 L22.6900195,1.3827243 L22.6900195,0.581404012 C22.6900195,0.260289923 22.4297461,0 22.1086523,0 L7.89140625,0 C7.5703125,0 7.31003906,0.260289923 7.31003906,0.581404012 L7.31003906,1.3827243 L6.48146484,1.3827243 C5.7009375,1.3827243 4.99722656,1.81546655 4.64478516,2.51219036 L0.285058594,11.1321113 L0.294375,11.1367991 C0.107636719,11.4443772 0,11.8051032 0,12.1904401 L0,21.297013 C0,22.4198575 0.913476562,23.3333333 2.03625,23.3333333 L27.9638086,23.3333333 C29.086582,23.3333333 30,22.4197989 30,21.297013 L30,12.1904401 C30,11.8051032 29.8923633,11.4443772 29.705625,11.1367991 Z M22.6899609,2.67473972 L23.5185352,2.67473972 C23.8091016,2.67473972 24.0710742,2.83594134 24.2023828,3.0954109 L27.7725,10.1541783 L25.3449023,10.1541783 L25.3449023,7.98220479 C25.3449023,7.6610907 25.0846289,7.40080078 24.7635352,7.40080078 L24.0442969,7.40080078 L24.0442969,4.2818337 C24.0442969,3.96071961 23.7840234,3.70042969 23.4629297,3.70042969 L22.6899609,3.70042969 L22.6899609,2.67473972 Z M24.1822266,8.5635502 L24.1822266,10.1541197 L21.1143164,10.1541197 C20.5879102,10.1541197 20.1080273,10.4642761 19.8917578,10.9441307 L19.0541016,12.8022562 C19.0461328,12.8197768 19.0286133,12.8311447 19.0093359,12.8311447 L10.9907227,12.8311447 C10.9714453,12.8311447 10.9539258,12.8197768 10.945957,12.8021976 L10.1083594,10.9441893 C9.89203125,10.4642761 9.41214844,10.1541197 8.88574219,10.1541197 L5.81783203,10.1541197 L5.81783203,8.5635502 L24.1822266,8.5635502 L24.1822266,8.5635502 Z M8.47277344,1.16280802 L21.5272266,1.16280802 L21.5272266,3.70037109 L8.47277344,3.70037109 L8.47277344,1.16280802 Z M22.8815625,4.86317911 L22.8815625,7.40074218 L7.1184375,7.40074218 L7.1184375,4.86317911 L22.8815625,4.86317911 Z M5.79761719,3.0954109 C5.92886719,2.83588274 6.19089844,2.67473972 6.48146484,2.67473972 L7.31003906,2.67473972 L7.31003906,3.70037109 L6.53707031,3.70037109 C6.21597656,3.70037109 5.95570312,3.96066101 5.95570312,4.2817751 L5.95570312,7.40074218 L5.23646484,7.40074218 C4.91537109,7.40074218 4.65509766,7.6610321 4.65509766,7.98214619 L4.65509766,10.1541197 L2.2275,10.1541197 L5.79761719,3.0954109 Z M27.9638086,22.0412593 L2.03625,22.0412593 C1.62585938,22.0412593 1.29193359,21.7073124 1.29193359,21.297013 L1.29193359,12.1904401 C1.29193359,11.7800821 1.62580078,11.4461937 2.03625,11.4461937 L8.88574219,11.4461937 C8.90496094,11.4461937 8.92259766,11.4575616 8.93056641,11.4751995 L9.76816406,13.3332078 C9.98449219,13.813121 10.4643164,14.1231601 10.9907227,14.1231601 L19.0092773,14.1231601 C19.5356836,14.1231601 20.0155664,13.8130624 20.2318359,13.3332664 L21.0694922,11.4751995 L21.0694922,11.4751409 C21.0774609,11.4575616 21.0949805,11.4461937 21.1142578,11.4461937 L27.96375,11.4461937 C28.3741406,11.4461937 28.7080078,11.7801407 28.7080078,12.1904401 L28.7080078,21.297013 L28.7080078,21.297013 C28.7080078,21.7074296 28.3741992,22.0412593 27.9638086,22.0412593 Z" id="Shape"></path>
            </g>
        </g>
    </g>
</svg>