<?xml version="1.0" encoding="UTF-8"?>
<svg width="17px" height="16px" viewBox="0 0 17 16" version="1.1" xmlns="http://www.w3.org/2000/svg" xmlns:xlink="http://www.w3.org/1999/xlink">
    <title>restore</title>
    <g id="Page-1" stroke="none" stroke-width="1" fill="none" fill-rule="evenodd">
        <g id="Splashscreen-Copy-70" transform="translate(-518, -2483)" fill="#555555" fill-rule="nonzero">
            <g id="Group-4" transform="translate(453, 2450)">
                <g id="restore" transform="translate(65, 33)">
                    <path d="M16.6666667,8 C16.6666667,12.4114286 13.0617324,16 8.63018907,16 C5.3513062,16 2.43062063,14.048 1.18898484,11.0274286 C1.06901171,10.7348571 1.20965007,10.4011429 1.5029815,10.2817143 C1.7957389,10.1628571 2.13154886,10.3028571 2.25152199,10.5942857 C3.31578123,13.184 5.81914401,14.8571429 8.62961503,14.8571429 C12.4279988,14.8571429 15.5180244,11.7811429 15.5180244,8 C15.5180244,4.21885714 12.4279988,1.14285714 8.62961503,1.14285714 C5.8139777,1.14285714 3.32037351,2.82342857 2.26242863,5.37771429 L2.54370535,5.12114286 C2.77733723,4.908 3.14070083,4.924 3.35481555,5.15657143 C3.56893028,5.38914286 3.55343136,5.75085714 3.31922544,5.964 L1.79344276,7.35657143 C1.68667242,7.45371429 1.54775616,7.50685714 1.4053957,7.50685714 C1.37152769,7.50685714 1.33823371,7.504 1.3043657,7.49771429 C1.12813722,7.46628571 0.976592218,7.35542857 0.895079374,7.19714286 L0.0638779762,5.59028571 C-0.0813526548,5.30971429 0.0294359293,4.96514286 0.311286679,4.82057143 C0.593711464,4.67371429 0.939280001,4.78571429 1.08451063,5.06685714 L1.12526705,5.14571429 C2.3106475,2.05314286 5.2720895,0 8.63018907,0 C13.0617324,0 16.6666667,3.58857143 16.6666667,8 Z" id="Shape"></path>
                </g>
            </g>
        </g>
    </g>
</svg>