<?xml version="1.0" encoding="UTF-8"?>
<svg width="9px" height="12px" viewBox="0 0 9 12" version="1.1" xmlns="http://www.w3.org/2000/svg" xmlns:xlink="http://www.w3.org/1999/xlink">
    <title>flag copy 2</title>
    <g id="Page-1" stroke="none" stroke-width="1" fill="none" fill-rule="evenodd">
        <g id="Password-Copy-5" transform="translate(-111, -591)" fill="#2D2D2D" fill-rule="nonzero">
            <g id="flag-copy-2" transform="translate(111, 591)">
                <path d="M8.28004538,1.82004453 L5.36771729,1.82004453 L5.36771729,1.79589297 C5.36771729,1.00634531 4.73060058,0.364017969 3.94748544,0.364017969 L0.67415002,0.364017969 L0.67415002,0.33984375 C0.67415002,0.152159375 0.523230302,0 0.33707501,0 C0.150919718,0 0,0.152159375 0,0.33984375 L0,11.2601562 C0,11.4478406 0.150919718,11.6 0.33707501,11.6 C0.523230302,11.6 0.67415002,11.4478406 0.67415002,11.2601562 L0.67415002,5.77584844 L2.88835082,5.77584844 L2.88835082,7.62004453 C2.88835082,7.80772891 3.03927054,7.95988828 3.22542583,7.95988828 L8.28006785,7.95988828 C8.46622314,7.95988828 8.61714286,7.80772891 8.61714286,7.62004453 L8.61714286,2.15988828 C8.61714286,1.97220391 8.46622314,1.82004453 8.28004538,1.82004453 Z M0.67415002,1.04368281 L3.94753039,1.04368281 C4.3589192,1.04368281 4.69361221,1.381125 4.69361221,1.79587031 L4.69361221,5.31003594 C4.47669321,5.17448359 4.22098811,5.09613828 3.94753039,5.09613828 L0.67415002,5.09613828 L0.67415002,1.04368281 Z M3.94750791,7.28020078 L3.56250084,7.28020078 L3.56250084,5.77584844 L3.94750791,5.77584844 C4.35889673,5.77584844 4.69358974,6.11329063 4.69358974,6.52803594 C4.69358974,6.94275859 4.35889673,7.28020078 3.94750791,7.28020078 L3.94750791,7.28020078 Z M7.94297037,7.28020078 L5.15558475,7.28020078 C5.29001026,7.0615 5.36771729,6.80371719 5.36771729,6.52803594 L5.36771729,2.49973203 L7.94297037,2.49973203 L7.94297037,7.28020078 Z" id="Shape"></path>
            </g>
        </g>
    </g>
</svg>