<?xml version="1.0" encoding="UTF-8"?>
<svg width="21px" height="21px" viewBox="0 0 21 21" version="1.1" xmlns="http://www.w3.org/2000/svg" xmlns:xlink="http://www.w3.org/1999/xlink">
    <title>image- (2)</title>
    <g id="Page-1" stroke="none" stroke-width="1" fill="none" fill-rule="evenodd">
        <g id="Splashscreen-Copy-124" transform="translate(-307, -1644)" fill="#FFFFFF" fill-rule="nonzero">
            <g id="image--(2)" transform="translate(307, 1644)">
                <path d="M7.64193548,9.30322581 C6.17275073,9.30322581 4.98387097,8.11434604 4.98387097,6.64516129 C4.98387097,5.17597654 6.17275073,3.98709677 7.64193548,3.98709677 C9.11112023,3.98709677 10.3,5.17597654 10.3,6.64516129 C10.3,8.11434604 9.11112023,9.30322581 7.64193548,9.30322581 Z M7.64193548,5.43695015 C6.97500293,5.43695015 6.43372434,5.97822874 6.43372434,6.64516129 C6.43372434,7.31209384 6.97500293,7.85337243 7.64193548,7.85337243 C8.30886804,7.85337243 8.85014663,7.31209384 8.85014663,6.64516129 C8.85014663,5.97822874 8.30886804,5.43695015 7.64193548,5.43695015 Z" id="Shape"></path>
                <path d="M13.1744186,20.6 L7.4255814,20.6 C2.22288372,20.6 0,18.3771163 0,13.1744186 L0,7.4255814 C0,2.22288372 2.22288372,0 7.4255814,0 L11.2581395,0 C11.6509767,0 11.9767442,0.325767442 11.9767442,0.718604651 C11.9767442,1.11144186 11.6509767,1.4372093 11.2581395,1.4372093 L7.4255814,1.4372093 C3.00855814,1.4372093 1.4372093,3.00855814 1.4372093,7.4255814 L1.4372093,13.1744186 C1.4372093,17.5914419 3.00855814,19.1627907 7.4255814,19.1627907 L13.1744186,19.1627907 C17.5914419,19.1627907 19.1627907,17.5914419 19.1627907,13.1744186 L19.1627907,8.38372093 C19.1627907,7.99088372 19.4885581,7.66511628 19.8813953,7.66511628 C20.2742326,7.66511628 20.6,7.99088372 20.6,8.38372093 L20.6,13.1744186 C20.6,18.3771163 18.3771163,20.6 13.1744186,20.6 Z" id="Path"></path>
                <path d="M14.3350711,7.30967742 C13.9455763,7.30967742 13.6225806,6.9780436 13.6225806,6.57813222 L13.6225806,0.725770619 C13.6225806,0.433152539 13.7935784,0.16004233 14.0595748,0.0527490345 C14.3255713,-0.0545442616 14.6295672,0.00397935445 14.8385644,0.20881201 L16.738539,2.15959921 C17.0140354,2.44246335 17.0140354,2.91065228 16.738539,3.19351643 C16.4630427,3.47638057 16.0070488,3.47638057 15.7315525,3.19351643 L15.0475616,2.49123303 L15.0475616,6.57813222 C15.0475616,6.9780436 14.7245659,7.30967742 14.3350711,7.30967742 L14.3350711,7.30967742 Z" id="Path" transform="translate(15.2839, 3.6548) rotate(-180) translate(-15.2839, -3.6548)"></path>
                <path d="M15.9944944,7.30967742 C15.8138677,7.30967742 15.633241,7.24317831 15.490641,7.10068021 C15.2149476,6.82518389 15.2149476,6.36918997 15.490641,6.09369365 L17.3919747,4.19371902 C17.6676681,3.91822269 18.1239882,3.91822269 18.3996816,4.19371902 C18.675375,4.46921534 18.675375,4.92520925 18.3996816,5.20070557 L16.4983479,7.10068021 C16.3557478,7.24317831 16.1751211,7.30967742 15.9944944,7.30967742 L15.9944944,7.30967742 Z" id="Path" transform="translate(16.9452, 5.6484) rotate(-180) translate(-16.9452, -5.6484)"></path>
                <path d="M1.37995372,17.6096774 C1.15023002,17.6096774 0.920506316,17.4964679 0.786500822,17.2983513 C0.566348939,16.9775911 0.652495328,16.5341873 0.977937242,16.3172024 L5.696845,13.1945073 C6.73060167,12.5152503 8.156803,12.5907233 9.09484145,13.3737556 L9.41071155,13.6473452 C9.8893026,14.0530126 10.7029074,14.0530126 11.1719266,13.6473452 L15.1538041,10.2793629 C16.1684172,9.42085754 17.7669113,9.42085754 18.7910961,10.2793629 L20.351303,11.6001403 C20.6480294,11.8548616 20.6863167,12.2982654 20.4278775,12.6001574 C20.1694384,12.8926153 19.7099909,12.9303518 19.4132645,12.6756304 L17.8530577,11.354853 C17.3744666,10.9491857 16.5704337,10.9491857 16.0918426,11.354853 L12.1099651,14.7228354 C11.095352,15.5813407 9.49685794,15.5813407 8.47267309,14.7228354 L8.156803,14.4492458 C7.71649923,14.0813149 6.9890504,14.0435784 6.50088753,14.3737728 L1.79154203,17.4964679 C1.65753653,17.5719409 1.51395922,17.6096774 1.37995372,17.6096774 L1.37995372,17.6096774 Z" id="Path"></path>
            </g>
        </g>
    </g>
</svg>