<svg xmlns="http://www.w3.org/2000/svg" width="23.666666666666664px" height="21.0px" viewBox="0 0 71 63" version="1.1">
    <title>camera (7)</title>
    <defs>
        <linearGradient x1="38.6925243%" y1="20.3274308%" x2="91.6920497%" y2="89.367189%" id="linearGradient-1">
            <stop stop-color="#FFFFFF" offset="0%" />
            <stop stop-color="#FFFFFF" stop-opacity="0.826832591" offset="100%" />
        </linearGradient>
        <linearGradient x1="38.6925243%" y1="12.313071%" x2="91.6920497%" y2="100%" id="linearGradient-2">
            <stop stop-color="#FFFFFF" offset="0%" />
            <stop stop-color="#FFFFFF" stop-opacity="0.826832591" offset="100%" />
        </linearGradient>
    </defs>
    <g id="Page-1" stroke="none" stroke-width="1" fill="none" fill-rule="evenodd">
        <g id="Splashscreen-Copy-98" transform="translate(-663, -2401)" fill-rule="nonzero">
            <g id="Group-2-Copy-5" transform="translate(420, 2341)">
                <g id="camera-(7)" transform="translate(243, 60)">
                    <path d="M18.4380979,6.47661965 C19.8650232,3.893611 21.4173348,2.16687897 23.7207569,1.25374588 C27.9416089,-0.417968328 43.0589591,-0.417968328 47.2767226,1.25406411 C49.5789022,2.16673754 51.1316753,3.89315134 52.5598431,6.47566498 L54.1651563,9.54177673 C54.2020764,9.60252262 54.2358015,9.6559493 54.2659765,9.70191535 L54.4022968,9.88754744 C55.1335983,10.681381 56.3579957,11.1609129 57.1656223,11.1609129 C64.8055926,11.1609129 71,17.3295556 71,24.9365819 L71,45.4268288 C71,55.1299065 63.0987492,63 53.3564647,63 L17.6435353,63 C7.8991563,63 0,55.1309673 0,45.4268288 L0,24.9365819 C0,17.3295556 6.19469139,11.1609129 13.8343777,11.1609129 C14.6394483,11.1609129 15.8652657,10.6806738 16.5978452,9.88754744 C16.6125067,9.87167147 16.6316058,9.84801664 16.6546808,9.81672437 L16.8372577,9.53778122 L18.4380979,6.47661965 Z M47.8954888,9.03438235 C47.007987,7.42967249 46.2060404,6.53810807 45.3075336,6.1818359 L44.8840178,6.04160411 C41.2303505,5.0130609 28.52239,5.05984018 25.6891294,6.1818359 C24.7909066,6.53793128 23.9898475,7.42903603 23.1035172,9.03342767 L21.7372615,11.6644178 L21.4010048,12.2705685 C21.1202702,12.7356387 20.8395002,13.1282241 20.5188635,13.4761516 C18.7209269,15.4226721 16.0611196,16.4646869 13.8343777,16.4646869 L13.251857,16.4842401 C8.82443015,16.7824183 5.32501065,20.4539028 5.32501065,24.9365819 L5.32501065,45.4268288 C5.32501065,52.2022233 10.8402662,57.696226 17.6435353,57.696226 L53.3564647,57.696226 C60.1575683,57.696226 65.6749893,52.200809 65.6749893,45.4268288 L65.6749893,24.9365819 C65.6749893,20.2590068 61.8647667,16.4646869 57.1656223,16.4646869 L56.5475661,16.4389459 C54.4583869,16.2677047 52.1114772,15.2454199 50.479184,13.473818 C50.1628783,13.130487 49.8834928,12.740695 49.6044622,12.2795495 C49.5643471,12.2133938 49.514647,12.1263058 49.4574919,12.0232712 L49.0453361,11.25334 L47.8954888,9.03438235 Z" id="Shape" fill="url(#linearGradient-1)" />
                    <path d="M54.5156794,19 C56.4400697,19 58,20.56702 58,22.5 C58,24.29494 56.6550523,25.774285 54.9222997,25.976445 L54.5156794,26 C52.5602787,26 51,24.433015 51,22.5 C51,20.705095 52.3452962,19.225715 54.0780488,19.023555 L54.5156794,19 Z" id="Path" fill="url(#linearGradient-2)" />
                    <path d="M21,36 C21,28.2670043 27.2669293,22 34.9999287,22 C42.7332845,22 49,28.2670043 49,36 C49,43.73296 42.7332845,50 34.9999287,50 C27.2669293,50 21,43.73296 21,36 L21,36 Z M43.6551013,36 C43.6551013,31.2188343 39.7811188,27.3448715 34.9999287,27.3448715 C30.219095,27.3448715 26.3447561,31.2188343 26.3447561,36 C26.3447561,40.7811657 30.219095,44.6551285 34.9999287,44.6551285 C39.7811188,44.6551285 43.6551013,40.7811657 43.6551013,36 Z" id="Shape" fill="url(#linearGradient-2)" />
                </g>
            </g>
        </g>
    </g>
</svg>