<svg id="Capa_1" enable-background="new 0 0 512 512" height="512" viewBox="0 0 512 512" width="512" xmlns="http://www.w3.org/2000/svg"><g><path d="m54.472 381.838c-6.09 24.673-14.854 42.076-27.561 54.785l-26.911 26.909 10.607 10.607c43.068 43.068 131.266 17.225 169.706-21.215 29.67-29.67 28.737-76.591.659-105.399-25.516-26.18-64.345-28.9-91.707-12.391-17.619 10.638-29.975 27.222-34.793 46.704z"/><path d="m161.521 300.807c14.017 4.775 27.257 12.092 39.974 24.809 11.673 11.673 19.633 25.53 24.655 40.186 17.311-11.651 36.698-26.609 56.922-43.462l-78.237-78.237c-16.778 20.136-31.687 39.448-43.314 56.704z"/><path d="m505.246 22.257c-40.386-40.385-197.128 112.275-227.239 142.387-18.435 18.433-37.606 38.692-53.51 56.693l81.337 81.339c18.001-15.906 38.589-34.742 57.026-53.179 30.111-30.112 182.772-186.854 142.386-227.24z"/></g></svg>