<?xml version="1.0" encoding="UTF-8"?>
<svg width="22px" height="21px" viewBox="0 0 22 21" version="1.1" xmlns="http://www.w3.org/2000/svg" xmlns:xlink="http://www.w3.org/1999/xlink">
    <title>duplicate</title>
    <g id="Page-1" stroke="none" stroke-width="1" fill="none" fill-rule="evenodd">
        <g id="Splashscreen-Copy-54" transform="translate(-427, -829)" fill="#FFFFFF" fill-rule="nonzero">
            <g id="duplicate" transform="translate(427, 829)">
                <path d="M2.56666667,21 L12.1,21 C13.5166378,20.9978789 14.6645129,19.8673958 14.6666667,18.4722222 L14.6666667,6.19444444 C14.6645129,4.79927087 13.5166378,3.6687878 12.1,3.66666667 L2.56666667,3.66666667 C1.15002889,3.6687878 0.00215376698,4.79927087 0,6.19444444 L0,18.4722222 C0.00215376698,19.8673958 1.15002889,20.9978789 2.56666667,21 L2.56666667,21 Z M1.95555556,6.19444444 C1.95555556,5.86205085 2.22915932,5.59259259 2.56666667,5.59259259 L12.1,5.59259259 C12.4375073,5.59259259 12.7111111,5.86205085 12.7111111,6.19444444 L12.7111111,18.4722222 C12.7111111,18.8046158 12.4375073,19.0740741 12.1,19.0740741 L2.56666667,19.0740741 C2.22915932,19.0740741 1.95555556,18.8046158 1.95555556,18.4722222 L1.95555556,6.19444444 Z" id="Shape"></path>
                <path d="M19.131658,0 L9.74345086,0 C8.7243088,0.000962629879 7.80491246,0.611791751 7.40989343,1.55037037 C7.20228195,2.04018558 7.43143208,2.60540121 7.92171458,2.81281481 C8.41199707,3.02022842 8.97775192,2.79129669 9.1853634,2.30148148 C9.27861609,2.07535652 9.49865641,1.92728409 9.74345086,1.92592593 L19.131658,1.92592593 C19.4668103,1.92645615 19.7383727,2.19775971 19.7389034,2.53259259 L19.7389034,14.8007407 C19.7383727,15.1355736 19.4668103,15.4068772 19.131658,15.4074074 L16.8472585,15.4074074 C16.3149214,15.4074074 15.8833769,15.8385406 15.8833769,16.3703704 C15.8833769,16.9022001 16.3149214,17.3333333 16.8472585,17.3333333 L19.131658,17.3333333 C20.531044,17.3317413 21.6650731,16.198793 21.6666667,14.8007407 L21.6666667,2.53259259 C21.6650731,1.13454029 20.531044,0.00159201404 19.131658,0 L19.131658,0 Z" id="Path"></path>
            </g>
        </g>
    </g>
</svg>