<?xml version="1.0" encoding="UTF-8"?>
<svg width="19px" height="20px" viewBox="0 0 19 20" version="1.1" xmlns="http://www.w3.org/2000/svg" xmlns:xlink="http://www.w3.org/1999/xlink">
    <title>copy (3)</title>
    <g id="Page-1" stroke="none" stroke-width="1" fill="none" fill-rule="evenodd">
        <g id="Splashscreen-Copy-57" transform="translate(-763, -1856)" fill="#FFFFFF" fill-rule="nonzero">
            <g id="copy-(3)" transform="translate(763, 1856)">
                <path d="M12.4044523,19.3 L2.23692705,19.3 C1.00296072,19.3 0,18.3066338 0,17.0844718 L0,6.20848407 C0,4.9863221 1.00296072,3.99310345 2.23692705,3.99310345 L2.64353272,3.99310345 C2.98028563,3.99310345 3.25359019,4.26379353 3.25359019,4.59732499 C3.25359019,4.93085645 2.98028563,5.20154653 2.64353272,5.20154653 L2.23692705,5.20154653 C1.67646653,5.20154653 1.22011494,5.65338503 1.22011494,6.20848407 L1.22011494,17.0844718 C1.22011494,17.6395709 1.67646653,18.0915569 2.23692705,18.0915569 L12.4044523,18.0915569 C12.9649128,18.0915569 13.4212644,17.6395709 13.4212644,17.0844718 L13.4212644,16.6817558 C13.4212644,16.3482244 13.6945689,16.0775343 14.0313218,16.0775343 C14.3680747,16.0775343 14.6413793,16.3482244 14.6413793,16.6817558 L14.6413793,17.0844718 C14.6413793,18.3066338 13.6384186,19.3 12.4044523,19.3 Z" id="Path"></path>
                <path d="M16.071292,14.6413793 L7.55471859,14.6413793 C6.32425314,14.6413793 5.32413793,13.6384186 5.32413793,12.4044523 L5.32413793,2.23692705 C5.32413793,1.00296072 6.32425314,0 7.55471859,0 L16.071292,0 C17.3017575,0 18.3017241,1.00296072 18.3017241,2.23692705 L18.3017241,12.4044523 C18.3017241,13.6384186 17.3017575,14.6413793 16.071292,14.6413793 Z M7.55471859,1.22011494 C6.99584815,1.22011494 6.54079128,1.67646653 6.54079128,2.23692705 L6.54079128,12.4044523 C6.54079128,12.9649128 6.99584815,13.4212644 7.55471859,13.4212644 L16.071292,13.4212644 C16.6301625,13.4212644 17.0850708,12.9649128 17.0850708,12.4044523 L17.0850708,2.23692705 C17.0850708,1.67646653 16.6301625,1.22011494 16.071292,1.22011494 L7.55471859,1.22011494 Z" id="Shape"></path>
            </g>
        </g>
    </g>
</svg>