<?xml version="1.0" encoding="UTF-8"?>
<svg width="18px" height="18px" viewBox="0 0 18 18" version="1.1" xmlns="http://www.w3.org/2000/svg" xmlns:xlink="http://www.w3.org/1999/xlink">
    <title>add-user</title>
    <g id="Page-1" stroke="none" stroke-width="1" fill="none" fill-rule="evenodd">
        <g id="Splashscreen-Copy-115" transform="translate(-402, -1528)" fill="#FFD01E" fill-rule="nonzero">
            <g id="add-user" transform="translate(402, 1528)">
                <path d="M12.8149396,9.03195703 C12.4719129,8.86753125 12.1219134,8.72588672 11.7657779,8.60723438 C12.9191829,7.73423438 13.6666667,6.34412109 13.6666667,4.78125 C13.6666667,2.14488281 11.5396501,0 8.92516541,0 C6.3106807,0 4.18366415,2.14488281 4.18366415,4.78125 C4.18366415,6.34584375 4.93282135,7.73732813 6.08838796,8.61015234 C5.02963862,8.96164453 4.03618952,9.50857031 3.16668186,10.2297656 C1.57228233,11.5522383 0.463712366,13.3968516 0.0452400159,15.4238555 C-0.0859182762,16.0589883 0.0712136809,16.7113477 0.476263399,17.2135898 C0.87932587,17.7133711 1.47699908,18 2.1159861,18 L10.7032284,18 C11.0883359,18 11.400508,17.6852109 11.400508,17.296875 C11.400508,16.9085391 11.0883359,16.59375 10.7032284,16.59375 L2.1159861,16.59375 C1.81831744,16.59375 1.63873308,16.4261953 1.55819728,16.3263516 C1.41912487,16.1539102 1.36529488,15.9294375 1.41051347,15.7104492 C2.13411537,12.2055469 5.1999143,9.64525781 8.74031659,9.55891406 C8.80164233,9.56130469 8.86324698,9.5625 8.92516541,9.5625 C8.98767652,9.5625 9.04990873,9.56126953 9.11182716,9.55884375 C10.1967942,9.58450781 11.2402731,9.8341875 12.2162554,10.3020469 C12.5640933,10.4686875 12.9800206,10.3195898 13.1453456,9.96883594 C13.3106706,9.61811719 13.1627776,9.19866797 12.8149396,9.03195703 Z M9.0952319,8.15192578 C9.03864766,8.15090625 8.98195883,8.15037891 8.92516541,8.15037891 C8.86889495,8.15037891 8.81262448,8.15094141 8.75642375,8.15199609 C6.98899429,8.06308594 5.57822334,6.5851875 5.57822334,4.78125 C5.57822334,2.92025391 7.07964064,1.40625 8.92516541,1.40625 C10.7706902,1.40625 12.2721075,2.92025391 12.2721075,4.78125 C12.2721075,6.58473047 10.8620338,8.06234766 9.0952319,8.15192578 Z" id="Shape"></path>
                <path d="M17.2982456,13.9649123 L15.3684211,13.9649123 L15.3684211,12.0350877 C15.3684211,11.6475088 15.0542456,11.3333333 14.6666667,11.3333333 C14.2790877,11.3333333 13.9649123,11.6475088 13.9649123,12.0350877 L13.9649123,13.9649123 L12.0350877,13.9649123 C11.6475088,13.9649123 11.3333333,14.2790877 11.3333333,14.6666667 C11.3333333,15.0542456 11.6475088,15.3684211 12.0350877,15.3684211 L13.9649123,15.3684211 L13.9649123,17.2982456 C13.9649123,17.6858246 14.2790877,18 14.6666667,18 C15.0542456,18 15.3684211,17.6858246 15.3684211,17.2982456 L15.3684211,15.3684211 L17.2982456,15.3684211 C17.6858246,15.3684211 18,15.0542456 18,14.6666667 C18,14.2790877 17.6858246,13.9649123 17.2982456,13.9649123 Z" id="Path"></path>
            </g>
        </g>
    </g>
</svg>