<?xml version="1.0" encoding="UTF-8"?>
<svg width="15px" height="8px" viewBox="0 0 15 8" version="1.1" xmlns="http://www.w3.org/2000/svg" xmlns:xlink="http://www.w3.org/1999/xlink">
    <title>double-tick</title>
    <g id="Page-1" stroke="none" stroke-width="1" fill="none" fill-rule="evenodd">
        <g id="Splashscreen-Copy-85" transform="translate(-949, -1794)" fill="#FFFFFF" fill-rule="nonzero">
            <g id="double-tick" transform="translate(949, 1794)">
                <path d="M7.20477764,7.96363636 C6.98702653,7.96363636 6.76927542,7.89087299 6.69669172,7.74534625 L3.5030088,4.25270438 C3.21267399,3.96165089 3.28525769,3.52507066 3.5755925,3.23401717 C3.86592731,2.94296368 4.30142953,3.01572705 4.59176434,3.30678054 L7.27736134,6.21731543 L13.3743924,0.541772396 C13.6647272,0.250718907 14.1002294,0.250718907 14.3905642,0.614535768 C14.680899,0.905589257 14.680899,1.34216949 14.3179805,1.63322298 L7.71286356,7.81810962 C7.56769615,7.89087299 7.34994505,7.96363636 7.20477764,7.96363636 L7.20477764,7.96363636 Z" id="Path"></path>
                <path d="M7.0027626,4.64545455 C6.79086998,4.64545455 6.64960823,4.57038916 6.50834648,4.42025838 C6.22582298,4.11999682 6.22582298,3.66960448 6.57897735,3.36934292 L9.75736673,0.216596543 C10.0398902,-0.083665016 10.4636755,-0.083665016 10.746199,0.291661933 C11.0287225,0.591923493 11.0287225,1.04231583 10.6755681,1.34257739 L7.49717873,4.49532377 C7.35591698,4.57038916 7.14402435,4.64545455 7.0027626,4.64545455 L7.0027626,4.64545455 Z" id="Path"></path>
                <path d="M3.5437739,7.63181818 C3.32478089,7.63181818 3.17878555,7.56173063 3.03279022,7.42155553 L0.185881106,4.47787834 C-0.106109572,4.19752813 -0.0331119022,3.77700282 0.258878776,3.49665261 C0.550869454,3.2163024 0.98885547,3.28638995 1.28084615,3.56674016 L4.12775526,6.51041735 C4.41974594,6.79076756 4.34674827,7.21129287 4.05475759,7.49164308 C3.90876225,7.56173063 3.68976924,7.63181818 3.5437739,7.63181818 L3.5437739,7.63181818 Z" id="Path"></path>
            </g>
        </g>
    </g>
</svg>