<?xml version="1.0" encoding="UTF-8"?>
<svg width="24px" height="24px" viewBox="0 0 24 24" version="1.1" xmlns="http://www.w3.org/2000/svg" xmlns:xlink="http://www.w3.org/1999/xlink">
    <title>scanner (1)</title>
    <g id="Page-1" stroke="none" stroke-width="1" fill="none" fill-rule="evenodd">
        <g id="Splashscreen-Copy-123" transform="translate(-1042, -1818)" fill="#6D6D6D" fill-rule="nonzero">
            <g id="scanner-(1)" transform="translate(1042, 1818)">
                <path d="M0.842105263,7.66666667 C1.30718716,7.66666667 1.68421053,7.2852796 1.68421053,6.81481481 L1.68421053,2.55555556 C1.68421053,2.08509077 2.06123389,1.7037037 2.52631579,1.7037037 L7.15789474,1.7037037 C7.62297663,1.7037037 8,1.32231664 8,0.851851852 C8,0.381387065 7.62297663,0 7.15789474,0 L2.52631579,0 C1.13107011,0 0,1.14416119 0,2.55555556 L0,6.81481481 C0,7.2852796 0.377023369,7.66666667 0.842105263,7.66666667 Z" id="Path"></path>
                <path d="M21.4736842,0 L16.8421053,0 C16.3770234,0 16,0.381387065 16,0.851851852 C16,1.32231664 16.3770234,1.7037037 16.8421053,1.7037037 L21.4736842,1.7037037 C21.9387661,1.7037037 22.3157895,2.08509077 22.3157895,2.55555556 L22.3157895,6.81481481 C22.3157895,7.2852796 22.6928128,7.66666667 23.1578947,7.66666667 C23.6229766,7.66666667 24,7.2852796 24,6.81481481 L24,2.55555556 C24,1.14416119 22.8689299,0 21.4736842,0 Z" id="Path"></path>
                <path d="M23.1578947,16.3333333 C22.6928128,16.3333333 22.3157895,16.7147204 22.3157895,17.1851852 L22.3157895,21.4444444 C22.3157895,21.9149092 21.9387661,22.2962963 21.4736842,22.2962963 L16.8421053,22.2962963 C16.3770234,22.2962963 16,22.6776834 16,23.1481481 C16,23.6186129 16.3770234,24 16.8421053,24 L21.4736842,24 C22.8689299,24 24,22.8558388 24,21.4444444 L24,17.1851852 C24,16.7147204 23.6229766,16.3333333 23.1578947,16.3333333 Z" id="Path"></path>
                <path d="M7.15789474,22.2962963 L2.52631579,22.2962963 C2.06123389,22.2962963 1.68421053,21.9149092 1.68421053,21.4444444 L1.68421053,17.1851852 C1.68421053,16.7147204 1.30718716,16.3333333 0.842105263,16.3333333 C0.377023369,16.3333333 0,16.7147204 0,17.1851852 L0,21.4444444 C0,22.8558388 1.13107011,24 2.52631579,24 L7.15789474,24 C7.62297663,24 8,23.6186129 8,23.1481481 C8,22.6776834 7.62297663,22.2962963 7.15789474,22.2962963 Z" id="Path"></path>
                <path d="M23.1428571,11 L0.857142857,11 C0.383755929,11 0,11.373096 0,11.8333333 C0,12.2935706 0.383755929,12.6666667 0.857142857,12.6666667 L23.1428571,12.6666667 C23.6162441,12.6666667 24,12.2935706 24,11.8333333 C24,11.373096 23.6162441,11 23.1428571,11 Z" id="Path"></path>
            </g>
        </g>
    </g>
</svg>