<?xml version="1.0" encoding="UTF-8"?>
<svg width="12px" height="12px" viewBox="0 0 12 12" version="1.1" xmlns="http://www.w3.org/2000/svg" xmlns:xlink="http://www.w3.org/1999/xlink">
    <title>button (3) copy</title>
    <g id="Page-1" stroke="none" stroke-width="1" fill="none" fill-rule="evenodd">
        <g id="Login-Copy-22" transform="translate(-736.000000, -1030.000000)" fill="#000000" fill-rule="nonzero">
            <g id="button-(3)-copy" transform="translate(736.000000, 1030.000000)">
                <path d="M3.78947368,5.84210526 C3.78947368,6.10372105 4.00154211,6.31578947 4.26315789,6.31578947 L5.68421053,6.31578947 L5.68421053,7.73684211 C5.68421053,7.99845789 5.89627895,8.21052632 6.15789474,8.21052632 C6.41951053,8.21052632 6.63157895,7.99845789 6.63157895,7.73684211 L6.63157895,6.31578947 L8.05263158,6.31578947 C8.31424737,6.31578947 8.52631579,6.10372105 8.52631579,5.84210526 C8.52631579,5.58048947 8.31424737,5.36842105 8.05263158,5.36842105 L6.63157895,5.36842105 L6.63157895,3.94736842 C6.63157895,3.68575263 6.41951053,3.47368421 6.15789474,3.47368421 C5.89627895,3.47368421 5.68421053,3.68575263 5.68421053,3.94736842 L5.68421053,5.36842105 L4.26315789,5.36842105 C4.00154211,5.36842105 3.78947368,5.58048947 3.78947368,5.84210526 Z" id="Path"></path>
                <path d="M3.82082285,1.54090488 L4.44082425,1.27407133 C4.68538315,1.1687921 4.80155103,0.877481375 4.7002187,0.62337197 C4.59888638,0.369262564 4.31852083,0.248520133 4.07391399,0.353874067 L3.45391259,0.620707618 C3.20935369,0.725986851 3.09318582,1.01729757 3.19451814,1.27140698 C3.29551493,1.52466977 3.57544907,1.64643312 3.82082285,1.54090488 Z" id="Path"></path>
                <path d="M6,0 C5.74110938,0 5.53125,0.209859375 5.53125,0.46875 C5.53125,0.727640625 5.74110938,0.9375 6,0.9375 C8.79792188,0.9375 11.0625,3.20175 11.0625,6 C11.0625,8.79792188 8.79825,11.0625 6,11.0625 C3.20207813,11.0625 0.9375,8.79825 0.9375,6 C0.9375,5.74110938 0.727640625,5.53125 0.46875,5.53125 C0.209859375,5.53125 0,5.74110938 0,6 C0,9.31600781 2.68352344,12 6,12 C9.31600781,12 12,9.31647656 12,6 C12,2.68399219 9.31647656,0 6,0 Z" id="Path"></path>
                <path d="M2.30015063,2.71837575 L2.71836224,2.30015628 C2.88335294,2.13516248 2.88335294,1.86765748 2.71836224,1.7026848 C2.55337154,1.53771212 2.28587158,1.537691 2.120902,1.7026848 L1.70269039,2.12090427 C1.53769969,2.28589808 1.53769969,2.55340307 1.70269039,2.71837575 C1.86763885,2.88332731 2.13515993,2.88336956 2.30015063,2.71837575 Z" id="Path"></path>
                <path d="M0.623343913,4.7002138 C0.878006633,4.80173662 1.16902484,4.6848272 1.27405734,4.44082251 L1.54089666,3.82080472 C1.64617816,3.57622483 1.52548293,3.29583874 1.27139293,3.19450765 C1.01722823,3.09320053 0.725961012,3.20934302 0.620679504,3.45389894 L0.353840186,4.07389277 C0.248558679,4.31849662 0.369253917,4.59888271 0.623343913,4.7002138 Z" id="Path"></path>
            </g>
        </g>
    </g>
</svg>