<?xml version="1.0" encoding="UTF-8"?>
<svg width="30px" height="24px" viewBox="0 0 30 24" version="1.1" xmlns="http://www.w3.org/2000/svg" xmlns:xlink="http://www.w3.org/1999/xlink">
    <title>photo-camera-interface-symbol-for-button (1)</title>
    <g id="Page-1" stroke="none" stroke-width="1" fill="none" fill-rule="evenodd">
        <g id="Splashscreen-Copy-85" transform="translate(-288, -1150)" fill="#8A8A8A" fill-rule="nonzero">
            <g id="photo-camera-interface-symbol-for-button-(1)" transform="translate(288, 1150)">
                <path d="M19.4471043,13.9889998 C19.4471043,16.6103076 17.3195564,18.7427175 14.7042254,18.7427175 C12.0888943,18.7427175 9.96215942,16.6103076 9.96215942,13.9889998 C9.96215942,11.367692 12.0888943,9.23528213 14.7042254,9.23528213 C17.3195564,9.23528213 19.4471043,11.3685068 19.4471043,13.9889998 Z M29.4084507,7.23894887 L29.4084507,20.7406804 C29.4084507,22.5406396 27.9524178,24 26.1565625,24 L3.25188817,24 C1.45603293,24 0,22.5406396 0,20.7406804 L0,7.23894887 C0,5.43898961 1.45603293,3.97962925 3.25188817,3.97962925 L7.25171063,3.97962925 L7.25171063,2.85190466 C7.25171063,1.27683846 8.52482485,0 10.0971128,0 L19.3113379,0 C20.8836259,0 22.1567401,1.27683846 22.1567401,2.85190466 L22.1567401,3.97881442 L26.1565625,3.97881442 C27.9524178,3.97962925 29.4084507,5.43898961 29.4084507,7.23894887 Z M21.8860204,13.9889998 C21.8860204,10.0199633 18.6642122,6.79079242 14.7042254,6.79079242 C10.7450515,6.79079242 7.52324329,10.0199633 7.52324329,13.9889998 C7.52324329,17.9580363 10.7450515,21.1872072 14.7042254,21.1872072 C18.6642122,21.1872072 21.8860204,17.9580363 21.8860204,13.9889998 Z" id="Shape"></path>
            </g>
        </g>
    </g>
</svg>