<?xml version="1.0" encoding="UTF-8"?>
<svg width="18px" height="18px" viewBox="0 0 18 18" version="1.1" xmlns="http://www.w3.org/2000/svg" xmlns:xlink="http://www.w3.org/1999/xlink">
    <title>image- (1)</title>
    <g id="Page-1" stroke="none" stroke-width="1" fill="none" fill-rule="evenodd">
        <g id="Splashscreen-Copy-66" transform="translate(-91, -2449)" fill="#424242" fill-rule="nonzero">
            <g id="image--(1)" transform="translate(91, 2449)">
                <path d="M6.54545455,7.85454545 C5.27920661,7.85454545 4.25454545,6.8298843 4.25454545,5.56363636 C4.25454545,4.29738843 5.27920661,3.27272727 6.54545455,3.27272727 C7.81170248,3.27272727 8.83636364,4.29738843 8.83636364,5.56363636 C8.83636364,6.8298843 7.81170248,7.85454545 6.54545455,7.85454545 Z M6.54545455,4.52231405 C5.97064463,4.52231405 5.50413223,4.98882645 5.50413223,5.56363636 C5.50413223,6.13844628 5.97064463,6.60495868 6.54545455,6.60495868 C7.12026446,6.60495868 7.58677686,6.13844628 7.58677686,5.56363636 C7.58677686,4.98882645 7.12026446,4.52231405 6.54545455,4.52231405 Z" id="Shape"></path>
                <path d="M11.5116279,18 L6.48837209,18 C1.94232558,18 0,16.0576744 0,11.5116279 L0,6.48837209 C0,1.94232558 1.94232558,0 6.48837209,0 L9.8372093,0 C10.1804651,0 10.4651163,0.284651163 10.4651163,0.627906977 C10.4651163,0.971162791 10.1804651,1.25581395 9.8372093,1.25581395 L6.48837209,1.25581395 C2.62883721,1.25581395 1.25581395,2.62883721 1.25581395,6.48837209 L1.25581395,11.5116279 C1.25581395,15.3711628 2.62883721,16.744186 6.48837209,16.744186 L11.5116279,16.744186 C15.3711628,16.744186 16.744186,15.3711628 16.744186,11.5116279 L16.744186,7.3255814 C16.744186,6.98232558 17.0288372,6.69767442 17.372093,6.69767442 C17.7153488,6.69767442 18,6.98232558 18,7.3255814 L18,11.5116279 C18,16.0576744 16.0576744,18 11.5116279,18 Z" id="Path"></path>
                <path d="M14.0498018,6.21818182 C13.7045162,6.21818182 13.4181818,5.93606822 13.4181818,5.59587241 L13.4181818,0.617397103 C13.4181818,0.368473338 13.5697706,0.136144491 13.8055754,0.0448724435 C14.0413802,-0.0463996037 14.3108714,0.00338514931 14.4961466,0.177631785 L16.1804666,1.83712355 C16.424693,2.07774986 16.424693,2.47602788 16.1804666,2.71665419 C15.9362402,2.9572805 15.5320034,2.9572805 15.287777,2.71665419 L14.6814218,2.11923715 L14.6814218,5.59587241 C14.6814218,5.93606822 14.3950874,6.21818182 14.0498018,6.21818182 L14.0498018,6.21818182 Z" id="Path"></path>
                <path d="M12.4117831,2.94545455 C12.2516582,2.94545455 12.0915334,2.88650335 11.965119,2.76017935 C11.7207179,2.51595295 11.7207179,2.11171616 11.965119,1.86748977 L13.6506438,0.183169797 C13.8950449,-0.0610565989 14.2995708,-0.0610565989 14.5439719,0.183169797 C14.788373,0.427396192 14.788373,0.831632985 14.5439719,1.07585938 L12.8584471,2.76017935 C12.7320328,2.88650335 12.5719079,2.94545455 12.4117831,2.94545455 L12.4117831,2.94545455 Z" id="Path"></path>
                <path d="M1.27703299,15.3818182 C1.07715512,15.3818182 0.877277252,15.2795999 0.760681827,15.1007179 C0.569132201,14.8110995 0.644086402,14.4107445 0.927246719,14.2148262 L5.03307131,11.3953053 C5.93252173,10.7819956 7.17343018,10.8501412 7.98959815,11.5571509 L8.26443022,11.8041784 C8.68084245,12.1704606 9.38874325,12.1704606 9.79682723,11.8041784 L13.261377,8.76318464 C14.1441709,7.98802936 15.5349878,7.98802936 16.4261099,8.76318464 L17.7836138,9.95573123 C18.0417894,10.1857224 18.0751024,10.5860773 17.8502398,10.8586594 C17.6253772,11.1227232 17.2256214,11.156796 16.9674458,10.9268049 L15.609942,9.73425829 C15.1935297,9.36797612 14.4939572,9.36797612 14.077545,9.73425829 L10.6129952,12.7752521 C9.73020128,13.5504074 8.33938442,13.5504074 7.44826225,12.7752521 L7.17343018,12.5282246 C6.79033093,12.1960152 6.15739266,12.1619424 5.73265219,12.4600791 L1.63514751,15.2795999 C1.51855209,15.3477454 1.39362842,15.3818182 1.27703299,15.3818182 L1.27703299,15.3818182 Z" id="Path"></path>
            </g>
        </g>
    </g>
</svg>