<?xml version="1.0" encoding="UTF-8"?>
<svg width="19px" height="19px" viewBox="0 0 19 19" version="1.1" xmlns="http://www.w3.org/2000/svg" xmlns:xlink="http://www.w3.org/1999/xlink">
    <title>upload</title>
    <g id="Page-1" stroke="none" stroke-width="1" fill="none" fill-rule="evenodd">
        <g id="upload" fill="#FFFFFF" fill-rule="nonzero">
            <path d="M7.5703255,0.834696774 C7.96733484,0.442112903 8.40806334,0.11666129 8.97110726,0.0282870968 C9.0910648,0.00946451613 9.21210303,0 9.33333775,0 C9.45457248,0 9.57561071,0.00946451613 9.69556824,0.0282870968 C10.2587104,0.11666129 10.6993407,0.442112903 11.09635,0.834696774 C11.4832401,1.21726452 11.9155195,1.75427419 12.4392653,2.40507097 L13.8405383,4.14583548 C14.0933235,4.45993548 14.0397798,4.91645806 13.7209737,5.16549677 C13.4020694,5.41454516 12.9386462,5.3618129 12.6857628,5.0477129 L11.3124897,3.3416129 C10.7640843,2.66029355 10.3872153,2.19384194 10.0701776,1.87695484 L10.0701776,14.2741935 C10.0701776,14.6750323 9.74026986,15 9.33333775,15 C8.92640564,15 8.59649786,14.6750323 8.59649786,14.2741935 L8.59649786,1.87695484 C8.27955846,2.19384194 7.90268942,2.66029355 7.3542251,3.3416129 L5.9809029,5.0477129 C5.7280784,5.3618129 5.26461593,5.41454516 4.9457411,5.16549677 C4.62686627,4.91645806 4.57333239,4.45993548 4.82616672,4.14583548 L6.22738076,2.40508065 C6.75119533,1.75430323 7.18346491,1.21725484 7.5703255,0.834696774 Z" id="Path"></path>
            <path d="M17.8794809,8.28659362 C17.6371579,7.96979441 17.1790146,7.90589891 16.8563071,8.14378528 C16.533697,8.3817673 16.4685124,8.83142706 16.7109328,9.14822627 C17.230753,9.82764198 17.5384554,10.6710051 17.5384554,11.5869681 L17.5384554,12.5434874 C17.5384554,13.459546 17.5362144,13.8340234 17.4874965,14.1359009 C17.2068812,15.875427 15.8171538,17.2396149 14.0452829,17.5151882 C13.737678,17.5630141 13.3562166,17.5652141 12.4230736,17.5652141 L6.57693261,17.5652141 C5.64381876,17.5652141 5.26234768,17.5630141 4.95477195,17.5151882 C3.18286214,17.2396149 1.79317366,15.875427 1.5125292,14.1359009 C1.46382102,13.8340234 1.46155077,13.459546 1.46155077,12.5434874 L1.46155077,11.5869681 C1.46155077,10.6710051 1.76927265,9.82764198 2.28908314,9.14822627 C2.53146455,8.83142706 2.46636766,8.3817673 2.14366988,8.14378528 C1.82096237,7.90589891 1.36287749,7.96979441 1.12048634,8.28659362 C0.417096972,9.20580874 0,10.3496146 0,11.5869681 L0,12.6207742 C0,13.4357287 0,13.9321623 0.06898793,14.360396 C0.448685673,16.7138162 2.32884671,18.559516 4.72613874,18.9322716 C5.16233953,19 5.66802182,19 6.49820445,19 L12.5018017,19 C13.3319551,19 13.8376471,19 14.2738674,18.9322716 C16.6711789,18.559516 18.551301,16.7138162 18.9310085,14.360396 C19,13.9321623 19,13.4357287 19,12.6207742 L19,11.5869681 C19,10.3496146 18.5828702,9.20580874 17.8794809,8.28659362 L17.8794809,8.28659362 Z" id="Path"></path>
        </g>
    </g>
</svg>