<?xml version="1.0" encoding="UTF-8"?>
<svg width="12px" height="12px" viewBox="0 0 12 12" version="1.1" xmlns="http://www.w3.org/2000/svg" xmlns:xlink="http://www.w3.org/1999/xlink">
    <title>time (4) copy</title>
    <g id="Page-1" stroke="none" stroke-width="1" fill="none" fill-rule="evenodd">
        <g id="Password-Copy-5" transform="translate(-508, -593)" fill="#2D2D2D" fill-rule="nonzero">
            <g id="time-(4)-copy" transform="translate(508, 593)">
                <path d="M5.65,11.3 C8.76502786,11.3 11.3,8.76502786 11.3,5.65 C11.3,2.53497214 8.76505931,0 5.65,0 C2.53494069,0 0,2.53497214 0,5.65 C0,8.76502786 2.53497214,11.3 5.65,11.3 Z M5.65,0.753320753 C8.35068887,0.753320753 10.5466792,2.94927968 10.5466792,5.65 C10.5466792,8.35072032 8.35072032,10.5466792 5.65,10.5466792 C2.94927968,10.5466792 0.753320753,8.35072032 0.753320753,5.65 C0.753320753,2.94927968 2.94931113,0.753320753 5.65,0.753320753 Z" id="Shape"></path>
                <path d="M7.35948269,7.56054724 C7.42977269,7.61750832 7.51332136,7.64411765 7.59690175,7.64411765 C7.70896608,7.64411765 7.81912725,7.59473657 7.89319185,7.50168322 C8.02425605,7.33834826 7.99764355,7.09905462 7.83432081,6.96800607 L6.07738805,5.56262769 L6.07738805,2.70629572 C6.07738805,2.49738556 5.90645267,2.32647059 5.69751755,2.32647059 C5.48858244,2.32647059 5.31764706,2.49738556 5.31764706,2.70629572 L5.31764706,5.74496025 C5.31764706,5.86081706 5.37084035,5.96906215 5.46009849,6.04121497 L7.35948269,7.56054724 Z" id="Path"></path>
            </g>
        </g>
    </g>
</svg>