<?xml version="1.0" encoding="UTF-8"?>
<svg width="29px" height="37px" viewBox="0 0 29 37" version="1.1" xmlns="http://www.w3.org/2000/svg" xmlns:xlink="http://www.w3.org/1999/xlink">
    <title>file (1) copy</title>
    <g id="Page-1" stroke="none" stroke-width="1" fill="none" fill-rule="evenodd">
        <g id="file-(1)-copy" transform="translate(0, 0)" fill="#FFFFFF" fill-rule="nonzero">
            <path d="M19.6894641,0.282865888 C19.521931,0.106109619 19.292235,0 19.0541762,0 L4.80103694,0 C2.17096183,0 0,2.16603239 0,4.80034334 L0,31.7993774 C0,34.4339676 2.17096183,36.6 4.80103694,36.6 L24.1462358,36.6 C26.7763109,36.6 28.9472727,34.4339676 28.9472727,31.7993774 L28.9472727,10.3610458 C28.9472727,10.1312347 28.841345,9.91035921 28.6913736,9.7422592 L19.6894641,0.282865888 Z M19.9453634,3.12073975 L25.9732111,9.45939331 L22.0547198,9.45939331 C20.8897931,9.45939331 19.9453634,8.52227783 19.9453634,7.35535124 L19.9453634,3.12073975 Z M24.1462358,34.8318787 L4.80103694,34.8318787 C3.15079374,34.8318787 1.7650912,33.4616684 1.7650912,31.7993774 L1.7650912,4.80034334 C1.7650912,3.14726717 3.14187351,1.76812134 4.80103694,1.76812134 L18.1802722,1.76812134 L18.1802722,7.35535124 C18.1802722,9.50351254 19.9102399,11.2275146 22.0547198,11.2275146 L27.1821815,11.2275146 L27.1821815,31.7993774 C27.1821815,33.4616684 25.8053992,34.8318787 24.1462358,34.8318787 Z" id="Shape"></path>
            <path d="M21.7338233,28.9472727 L7.20452751,28.9472727 C6.71912102,28.9472727 6.32181818,29.321407 6.32181818,29.7790909 C6.32181818,30.236512 6.71912102,30.6109091 7.20452751,30.6109091 L21.7427451,30.6109091 C22.2281517,30.6109091 22.6254545,30.236512 22.6254545,29.7790909 C22.6254545,29.321407 22.2281517,28.9472727 21.7338233,28.9472727 Z" id="Path"></path>
            <path d="M13.9976799,25.6703924 C14.1638495,25.8468168 14.3910216,25.9527273 14.6355835,25.9527273 C14.8804215,25.9527273 15.1075936,25.8468168 15.2734872,25.6703924 L20.3946583,20.1201295 C20.7267215,19.7670019 20.7004988,19.2023322 20.3510457,18.8759609 C20.0013166,18.5406709 19.4420813,18.5668697 19.118851,18.9199973 L15.5094922,22.8289276 L15.5094922,13.19331 C15.5094922,12.7077944 15.1161505,12.3109091 14.6355835,12.3109091 C14.1550165,12.3109091 13.7616748,12.7077944 13.7616748,13.19331 L13.7616748,22.8289276 L10.161149,18.9199973 C9.82908574,18.5671485 9.27840732,18.5406709 8.92895429,18.8759609 C8.57950126,19.2112509 8.55327846,19.7672806 8.88534163,20.1201295 L13.9976799,25.6703924 Z" id="Path"></path>
        </g>
    </g>
</svg>