<?xml version="1.0" encoding="UTF-8"?>
<svg width="120px" height="120px" viewBox="0 0 120 120" version="1.1" xmlns="http://www.w3.org/2000/svg" xmlns:xlink="http://www.w3.org/1999/xlink">
    <title>close (3)</title>
    <g id="Page-1" stroke="none" stroke-width="1" fill="none" fill-rule="evenodd" opacity="0.10933649">
        <g id="Splashscreen-Copy-69" transform="translate(-1067.000000, -232.000000)" fill="#000000" fill-rule="nonzero">
            <g id="close-(3)" transform="translate(1067.000000, 232.000000)">
                <path d="M102.424242,17.5714286 C78.9921528,-5.8582699 41.0033671,-5.85697776 17.5728716,17.5743147 C-5.85762387,41.0056071 -5.85762387,78.9943929 17.5728716,102.425685 C41.0033671,125.856978 78.9921528,125.85827 102.424242,102.428571 C113.677749,91.1762128 120,75.9140502 120,60 C120,44.0859498 113.677749,28.8237872 102.424242,17.5714286 L102.424242,17.5714286 Z M81.4242422,75.1714286 C82.2897436,75.981736 82.7808973,77.1143817 82.7808973,78.3 C82.7808973,79.4856183 82.2897436,80.618264 81.4242422,81.4285714 C80.6154472,82.2307993 79.5205407,82.6780147 78.3813851,82.6715003 C77.2570713,82.6666945 76.1796449,82.2203321 75.3813851,81.4285714 L59.9956708,66.0428571 L44.8242422,81.4285714 C44.0259823,82.2203321 42.948556,82.6666945 41.8242422,82.6715003 C40.6850866,82.6780147 39.59018,82.2307993 38.7813851,81.4285714 C37.1197125,79.7569823 37.1197125,77.0573034 38.7813851,75.3857143 L53.9528136,60 L38.7813851,44.8285714 C37.3251988,43.1281702 37.4231039,40.5934536 39.0061141,39.0104433 C40.5891243,37.4274331 43.123841,37.329528 44.8242422,38.7857143 L59.9956708,53.9571429 L75.1670993,38.7857143 C76.2465518,37.6679834 77.8403094,37.2110384 79.348019,37.5870062 C80.8557286,37.962974 82.0483332,39.1147361 82.4765904,40.6084348 C82.9048475,42.1021335 82.5036947,43.7108405 81.4242422,44.8285714 L66.0385279,60 L81.4242422,75.1714286 Z" id="Shape"></path>
            </g>
        </g>
    </g>
</svg>