<?xml version="1.0" encoding="UTF-8"?>
<svg width="13px" height="9px" viewBox="0 0 13 9" version="1.1" xmlns="http://www.w3.org/2000/svg" xmlns:xlink="http://www.w3.org/1999/xlink">
    <title>sort (1)</title>
    <g id="Page-1" stroke="none" stroke-width="1" fill="none" fill-rule="evenodd">
        <g id="Splashscreen-Copy-98" transform="translate(-71, -430)" fill="#8A8A8A" fill-rule="nonzero">
            <g id="sort-(1)" transform="translate(71, 430)">
                <path d="M9.68803089,4.98648649 L2.27953668,4.98648649 C1.90911197,4.98648649 1.66216216,4.72054054 1.66216216,4.32162162 C1.66216216,3.9227027 1.90911197,3.65675676 2.27953668,3.65675676 L9.68803089,3.65675676 C10.0584556,3.65675676 10.3054054,3.9227027 10.3054054,4.32162162 C10.3054054,4.72054054 10.0584556,4.98648649 9.68803089,4.98648649 Z" id="Path"></path>
                <path d="M8.01993243,8.64324324 L4.28006757,8.64324324 C3.90608108,8.64324324 3.65675676,8.3772973 3.65675676,7.97837838 C3.65675676,7.57945946 3.90608108,7.31351351 4.28006757,7.31351351 L8.01993243,7.31351351 C8.39391892,7.31351351 8.64324324,7.57945946 8.64324324,7.97837838 C8.64324324,8.3772973 8.39391892,8.64324324 8.01993243,8.64324324 Z" id="Path"></path>
                <path d="M11.685,1.32972973 L0.615,1.32972973 C0.246,1.32972973 0,1.06378378 0,0.664864865 C0,0.265945946 0.246,0 0.615,0 L11.685,0 C12.054,0 12.3,0.265945946 12.3,0.664864865 C12.3,1.06378378 12.054,1.32972973 11.685,1.32972973 Z" id="Path"></path>
            </g>
        </g>
    </g>
</svg>