<?xml version="1.0" encoding="UTF-8"?>
<svg width="14px" height="14px" viewBox="0 0 14 14" version="1.1" xmlns="http://www.w3.org/2000/svg" xmlns:xlink="http://www.w3.org/1999/xlink">
    <title>external-link</title>
    <g id="Page-1" stroke="none" stroke-width="1" fill="none" fill-rule="evenodd">
        <g id="Splashscreen-Copy-64" transform="translate(-65, -958)" fill="#1D7AFF" fill-rule="nonzero">
            <g id="external-link" transform="translate(65, 958)">
                <path d="M9.94,14 L4.06,14 C2.8,14 2.1,14 1.54,13.72 C0.98,13.44 0.56,13.02 0.35,12.53 C0,11.9 0,11.2 0,9.94 L0,4.06 C0,2.8 0,2.1 0.28,1.54 C0.56,0.98 0.98,0.56 1.47,0.35 C2.1,0 2.8,0 4.06,0 L5.6,0 C6.02,0 6.3,0.28 6.3,0.7 C6.3,1.12 6.02,1.4 5.6,1.4 L4.06,1.4 C3.01,1.4 2.45,1.4 2.17,1.54 C1.89,1.68 1.68,1.89 1.54,2.17 C1.4,2.45 1.4,3.01 1.4,4.06 L1.4,9.94 C1.4,10.99 1.4,11.55 1.54,11.83 C1.68,12.11 1.89,12.32 2.17,12.46 C2.45,12.6 3.01,12.6 4.06,12.6 L9.94,12.6 C10.99,12.6 11.55,12.6 11.83,12.46 C12.11,12.32 12.32,12.11 12.46,11.83 C12.6,11.55 12.6,10.99 12.6,9.94 L12.6,8.4 C12.6,7.98 12.88,7.7 13.3,7.7 C13.72,7.7 14,7.98 14,8.4 L14,9.94 C14,11.2 14,11.9 13.72,12.46 C13.44,13.02 13.02,13.44 12.53,13.65 C11.9,14 11.2,14 9.94,14 L9.94,14 Z M7,7.7 C6.79,7.7 6.65,7.63 6.51,7.49 C6.23,7.21 6.23,6.79 6.51,6.51 L11.62,1.4 L9.1,1.4 C8.68,1.4 8.4,1.12 8.4,0.7 C8.4,0.28 8.68,0 9.1,0 L13.3,0 C13.37,0 13.51,0 13.58,0.07 C13.65,0.07 13.72,0.14 13.79,0.21 C13.86,0.28 13.93,0.35 13.93,0.42 C14,0.49 14,0.63 14,0.7 L14,4.9 C14,5.32 13.72,5.6 13.3,5.6 C12.88,5.6 12.6,5.32 12.6,4.9 L12.6,2.38 L7.49,7.49 C7.35,7.63 7.21,7.7 7,7.7 Z" id="Shape"></path>
            </g>
        </g>
    </g>
</svg>