<?xml version="1.0" encoding="UTF-8"?>
<svg width="71px" height="72px" viewBox="0 0 71 72" version="1.1" xmlns="http://www.w3.org/2000/svg" xmlns:xlink="http://www.w3.org/1999/xlink">
    <title>confetti (5)</title>
    <defs>
        <linearGradient x1="17.4789377%" y1="30.6369199%" x2="56.8466769%" y2="87.3551907%" id="linearGradient-1">
            <stop stop-color="#FFE548" offset="0%"></stop>
            <stop stop-color="#FFDE50" offset="17.58%"></stop>
            <stop stop-color="#FFCA65" offset="44.46%"></stop>
            <stop stop-color="#FFAA87" offset="77.09%"></stop>
            <stop stop-color="#FF90A4" offset="100%"></stop>
        </linearGradient>
        <linearGradient x1="48.8953157%" y1="77.4982263%" x2="40.2434091%" y2="107.960051%" id="linearGradient-2">
            <stop stop-color="#FBA5C2" stop-opacity="0" offset="0%"></stop>
            <stop stop-color="#FCA0BA" stop-opacity="0.386" offset="38.57%"></stop>
            <stop stop-color="#FF91A5" stop-opacity="0.974" offset="97.37%"></stop>
            <stop stop-color="#FF90A4" offset="100%"></stop>
        </linearGradient>
        <linearGradient x1="50.1533117%" y1="66.5408828%" x2="39.5430533%" y2="104.586913%" id="linearGradient-3">
            <stop stop-color="#FBA5C2" stop-opacity="0" offset="0%"></stop>
            <stop stop-color="#FCA0BA" stop-opacity="0.386" offset="38.57%"></stop>
            <stop stop-color="#FF91A5" stop-opacity="0.974" offset="97.37%"></stop>
            <stop stop-color="#FF90A4" offset="100%"></stop>
        </linearGradient>
        <linearGradient x1="53.0480728%" y1="50.2243708%" x2="38.7494223%" y2="97.6328225%" id="linearGradient-4">
            <stop stop-color="#FBA5C2" stop-opacity="0" offset="0%"></stop>
            <stop stop-color="#FCA0BA" stop-opacity="0.386" offset="38.57%"></stop>
            <stop stop-color="#FF91A5" stop-opacity="0.974" offset="97.37%"></stop>
            <stop stop-color="#FF90A4" offset="100%"></stop>
        </linearGradient>
        <linearGradient x1="55.439681%" y1="37.7811814%" x2="37.6954662%" y2="77.5611663%" id="linearGradient-5">
            <stop stop-color="#FFE548" offset="0%"></stop>
            <stop stop-color="#FFDE50" offset="17.58%"></stop>
            <stop stop-color="#FFCA65" offset="44.46%"></stop>
            <stop stop-color="#FFAA87" offset="77.09%"></stop>
            <stop stop-color="#FF90A4" offset="100%"></stop>
        </linearGradient>
        <linearGradient x1="35.625424%" y1="71.9356996%" x2="64.5933683%" y2="27.7068596%" id="linearGradient-6">
            <stop stop-color="#FFD00D" stop-opacity="0" offset="0%"></stop>
            <stop stop-color="#DB722B" offset="100%"></stop>
        </linearGradient>
        <linearGradient x1="51.4365159%" y1="50.2168798%" x2="37.6027317%" y2="-0.155256769%" id="linearGradient-7">
            <stop stop-color="#FFD00D" stop-opacity="0" offset="0%"></stop>
            <stop stop-color="#DB722B" offset="100%"></stop>
        </linearGradient>
        <linearGradient x1="55.3557651%" y1="58.370179%" x2="35.4284842%" y2="20.0772261%" id="linearGradient-8">
            <stop stop-color="#A34A9E" stop-opacity="0" offset="0%"></stop>
            <stop stop-color="#343168" offset="100%"></stop>
        </linearGradient>
        <linearGradient x1="49.7039332%" y1="55.640156%" x2="50.3237501%" y2="44.4776616%" id="linearGradient-9">
            <stop stop-color="#A34A9E" offset="0%"></stop>
            <stop stop-color="#343168" offset="100%"></stop>
        </linearGradient>
        <linearGradient x1="44.7775847%" y1="43.6829248%" x2="67.9835761%" y2="57.8222435%" id="linearGradient-10">
            <stop stop-color="#3FA9F5" offset="0%"></stop>
            <stop stop-color="#666AD6" offset="100%"></stop>
        </linearGradient>
        <linearGradient x1="39.587217%" y1="54.3554383%" x2="78.2939195%" y2="46.2233281%" id="linearGradient-11">
            <stop stop-color="#A34A9E" offset="0%"></stop>
            <stop stop-color="#343168" offset="100%"></stop>
        </linearGradient>
        <linearGradient x1="57.7572723%" y1="44.7882735%" x2="-30.3567209%" y2="80.5897579%" id="linearGradient-12">
            <stop stop-color="#FF4974" offset="0%"></stop>
            <stop stop-color="#FE4773" offset="44.97%"></stop>
            <stop stop-color="#FC406D" offset="62.92%"></stop>
            <stop stop-color="#F73464" offset="76.05%"></stop>
            <stop stop-color="#F12257" offset="86.83%"></stop>
            <stop stop-color="#E80C46" offset="96.06%"></stop>
            <stop stop-color="#E4003D" offset="100%"></stop>
        </linearGradient>
        <linearGradient x1="58.5513787%" y1="36.9103073%" x2="19.0317164%" y2="118.174131%" id="linearGradient-13">
            <stop stop-color="#C4F8B6" offset="0%"></stop>
            <stop stop-color="#3B8EAC" offset="100%"></stop>
        </linearGradient>
        <radialGradient cx="3.94069402%" cy="16.6152745%" fx="3.94069402%" fy="16.6152745%" r="113.36026%" gradientTransform="translate(0.0394, 0.1662), scale(1, 0.7872), rotate(0.1148), translate(-0.0394, -0.1662)" id="radialGradient-14">
            <stop stop-color="#FF4974" offset="0%"></stop>
            <stop stop-color="#FE4773" offset="44.97%"></stop>
            <stop stop-color="#FC406D" offset="62.92%"></stop>
            <stop stop-color="#F73464" offset="76.05%"></stop>
            <stop stop-color="#F12257" offset="86.83%"></stop>
            <stop stop-color="#E80C46" offset="96.06%"></stop>
            <stop stop-color="#E4003D" offset="100%"></stop>
        </radialGradient>
        <linearGradient x1="91.6782657%" y1="109.265414%" x2="-25.1652137%" y2="7.77056212%" id="linearGradient-15">
            <stop stop-color="#E4003D" stop-opacity="0" offset="0%"></stop>
            <stop stop-color="#CD0E2D" stop-opacity="0.343" offset="34.34%"></stop>
            <stop stop-color="#972E07" offset="100%"></stop>
        </linearGradient>
        <linearGradient x1="60.0125533%" y1="47.6875225%" x2="90.2800372%" y2="73.1541753%" id="linearGradient-16">
            <stop stop-color="#E4003D" stop-opacity="0" offset="0%"></stop>
            <stop stop-color="#CD0E2D" stop-opacity="0.343" offset="34.34%"></stop>
            <stop stop-color="#972E07" offset="100%"></stop>
        </linearGradient>
        <linearGradient x1="34.8272564%" y1="28.4423907%" x2="83.8854731%" y2="98.6835379%" id="linearGradient-17">
            <stop stop-color="#3FA9F5" offset="0%"></stop>
            <stop stop-color="#666AD6" offset="100%"></stop>
        </linearGradient>
        <linearGradient x1="34.8310623%" y1="28.4953358%" x2="83.8892791%" y2="98.7364831%" id="linearGradient-18">
            <stop stop-color="#3FA9F5" offset="0%"></stop>
            <stop stop-color="#666AD6" offset="100%"></stop>
        </linearGradient>
        <linearGradient x1="34.8727339%" y1="28.4715352%" x2="83.9294801%" y2="98.7126793%" id="linearGradient-19">
            <stop stop-color="#A34A9E" offset="0%"></stop>
            <stop stop-color="#343168" offset="100%"></stop>
        </linearGradient>
        <linearGradient x1="33.6389566%" y1="28.5120866%" x2="86.5426292%" y2="98.7546758%" id="linearGradient-20">
            <stop stop-color="#C4F8B6" offset="0%"></stop>
            <stop stop-color="#3B8EAC" offset="100%"></stop>
        </linearGradient>
        <linearGradient x1="33.6614662%" y1="28.5223041%" x2="86.5660021%" y2="98.7648932%" id="linearGradient-21">
            <stop stop-color="#FFE548" offset="0%"></stop>
            <stop stop-color="#FFDE50" offset="17.58%"></stop>
            <stop stop-color="#FFCA65" offset="44.46%"></stop>
            <stop stop-color="#FFAA87" offset="77.09%"></stop>
            <stop stop-color="#FF90A4" offset="100%"></stop>
        </linearGradient>
    </defs>
    <g id="Page-1" stroke="none" stroke-width="1" fill="none" fill-rule="evenodd">
        <g id="Splashscreen-Copy-87" transform="translate(-538, -332)" fill-rule="nonzero">
            <g id="confetti-(5)" transform="translate(538, 332)">
                <path d="M52.1423315,55.6233566 C51.8988875,55.8662285 51.6039402,56.0495095 51.259882,56.1750309 L50.9127279,56.2794207 C50.9127279,56.2794207 4.10195196,75.187649 0.462111375,71.5304823 C-3.17772921,67.8731747 15.8795789,21.07905 15.8795789,21.07905 L15.9851182,20.731929 C16.1117654,20.3879074 16.2959667,20.0933336 16.5394108,19.8504617 C19.4513114,16.9458599 29.7826273,22.5986901 39.6139681,32.4769848 C49.445309,42.3552796 55.0542322,52.7188956 52.1423315,55.6233566 L52.1423315,55.6233566 Z" id="Path" fill="url(#linearGradient-1)"></path>
                <path d="M49.227907,56.9718455 C46.7609325,57.9500885 41.8213469,59.8864234 35.9886509,62.0538615 C32.421282,63.3800276 28.5195252,64.7925755 24.6451055,66.1238146 C21.2593743,67.2873629 17.8939346,68.3910216 14.7928489,69.3209302 C12.6622352,67.5303031 10.5448673,65.5881906 8.47047809,63.5062889 C6.39608889,61.4243871 4.46190872,59.2997876 2.67906977,57.1626466 C3.62023175,54.0650181 4.7361266,50.7033118 5.91205065,47.3218773 C7.25735285,43.4521667 8.68410312,39.5555411 10.0232051,35.9930287 C12.2118753,30.1681004 14.1662061,25.2355969 15.1533059,22.772093 C21.4428438,26.1828382 28.1637183,31.2269477 34.4921484,37.5786222 C40.8207194,43.9304376 45.840203,50.6697737 49.227907,56.9718455 L49.227907,56.9718455 Z" id="Path" fill="url(#linearGradient-2)"></path>
                <path d="M52.1431723,55.523137 C51.9005698,55.7661883 51.6052583,55.947985 51.2617355,56.0740063 L50.9154015,56.177268 C50.9154015,56.177268 50.3108632,56.4210217 49.2344731,56.8476961 C46.773731,57.8229919 41.8466245,59.7534932 36.0286639,61.9144015 C32.4703074,63.2365722 28.5784078,64.6448646 24.7137763,65.972093 C21.3547305,63.4398642 17.987954,60.5145387 14.7257525,57.2419168 C11.4635509,53.9692949 8.54922939,50.5934113 6.02790698,47.2268002 C7.36981048,43.3687479 8.79295629,39.4838617 10.1286753,35.9320821 C12.3118161,30.1247025 14.2612096,25.2070592 15.2458156,22.7509771 C15.6766247,21.6766343 15.9227411,21.0733615 15.9227411,21.0733615 L16.0273159,20.72747 C16.1548017,20.3845289 16.3376671,20.0900576 16.5816752,19.8484112 C19.4903743,16.9516056 29.8088491,22.5894112 39.6296093,32.4398711 C49.4491045,42.2921573 55.0518714,52.6263313 52.1431723,55.523137 Z" id="Path" fill="url(#linearGradient-3)"></path>
                <path d="M52.1477083,55.5563696 C51.9065381,55.7996435 51.61297,55.9816068 51.2714753,56.1077436 L50.927186,56.2110998 C50.927186,56.2110998 50.3262168,56.4550768 49.2561814,56.882142 C46.809967,57.8583312 41.9119491,59.7906008 36.1283364,61.9534884 C31.4207675,58.8333954 26.598482,54.8794214 21.9871855,50.2216406 C17.375889,45.5638598 13.464489,40.6964135 10.3813953,35.9475104 C12.5516474,30.1348115 14.4895321,25.2126637 15.4683252,22.7543319 C15.8965909,21.6790051 16.1412543,21.0751796 16.1412543,21.0751796 L16.2452117,20.7289714 C16.3719449,20.3857162 16.5537307,20.0909751 16.7962981,19.8491074 C19.687825,16.9496484 29.9453817,22.5926181 39.7081624,32.4521007 C49.4695457,42.3132707 55.0392351,52.6569106 52.1477083,55.5563696 Z" id="Path" fill="url(#linearGradient-4)"></path>
                <path d="M52.1414685,55.5006919 C49.2266446,58.3960795 38.8870969,52.7622747 29.0477885,42.9170864 C19.2084801,33.0718981 13.5948705,22.743724 16.5096943,19.848196 C19.4245181,16.952668 29.7640659,22.5866132 39.6033743,32.4318015 C49.4426827,42.2769898 55.0562923,52.6053043 52.1414685,55.5006919 Z" id="Path" fill="url(#linearGradient-5)"></path>
                <path d="M50.4177044,53.1034588 C48.2629914,55.2435327 39.5363334,49.9955406 30.9263596,41.381866 C22.3163858,32.7681915 17.0833503,24.0505685 19.2380633,21.9104946 C21.3927763,19.7704207 30.1194344,25.0184129 38.7294081,33.6320874 C47.3393819,42.245762 52.5725583,50.963385 50.4177044,53.1034588 Z" id="Path" fill="url(#linearGradient-6)"></path>
                <path d="M52.1433818,55.425561 C55.0512649,52.5450301 49.4502209,42.2675787 39.6323037,32.4711471 C33.8754175,26.7268504 27.9476529,22.4244957 23.4418605,20.427907 C23.6177977,20.7497977 23.8141111,21.0688943 24.0334706,21.3835201 C24.3899824,21.8948569 24.8073415,22.3609279 25.277257,22.7811741 L27.7703104,25.276945 C27.4829369,25.4065955 27.2188905,25.5091422 26.996861,25.5869604 C26.5993159,25.7262508 26.3666066,26.1350409 26.4497973,26.5457869 L27.3320131,30.9024886 C27.4100044,31.2876677 27.6817797,31.5802195 28.0214285,31.7080537 L51.9562026,55.5906977 C52.0215467,55.5392846 52.0840803,55.4843787 52.1433818,55.425561 L52.1433818,55.425561 Z" id="Path" fill="url(#linearGradient-7)"></path>
                <path d="M36.137261,41.899781 L38.5989088,44.8240083 L50.0660165,56.2604651 C50.9424716,56.2358941 51.6466877,55.9911672 52.1389607,55.503679 C54.6944286,52.9734298 50.7159751,44.7672845 43.0843301,36.1674419 C40.7061878,37.1543528 38.4391037,38.4462246 36.3455304,40.0346331 C35.754068,40.4830886 35.659824,41.3326828 36.137261,41.899781 Z" id="Path" fill="url(#linearGradient-8)"></path>
                <path d="M38.921416,44.7474217 L36.4707914,41.8397549 C35.9954924,41.2758683 36.0893143,40.4312251 36.6779875,39.9850301 C44.2727858,34.2300082 54.151664,32.360764 63.3778676,34.9945151 C65.6999266,35.6572458 67.923381,36.5866326 70.0046256,37.7631298 C70.6484385,38.1270943 70.8547906,38.9523316 70.4592472,39.5741566 L68.4204828,42.7797521 C68.0508214,43.3609504 67.2882892,43.5508206 66.6842838,43.2149178 C65.0867781,42.3267162 63.3832128,41.621823 61.6046743,41.1141994 C54.3893839,39.0545265 46.6670046,40.4916764 40.7002359,44.949438 C40.1471503,45.3625454 39.365488,45.2743115 38.921416,44.7474217 L38.921416,44.7474217 Z" id="Path" fill="url(#linearGradient-9)"></path>
                <path d="M17.629401,14.1868083 L15.4163101,11.9687329 C14.4132212,10.963329 14.1111754,9.34498014 14.6969401,8.11445726 C15.3769979,6.68566075 17.0090808,6.26690141 18.3235889,7.18386581 C19.4558062,7.9736898 20.0114922,9.5269013 19.6470506,10.8832019 L18.8431805,13.8754302 C18.7011812,14.4041598 18.0205637,14.5788587 17.629401,14.1868083 L17.629401,14.1868083 Z" id="Path" fill="url(#linearGradient-10)"></path>
                <path d="M13.9080819,16.7364748 L10.7598175,16.2876345 C9.33285286,16.0842537 8.07842466,14.9704037 7.77231614,13.6350214 C7.41687146,12.0844321 8.45068849,10.7717393 10.0695316,10.717972 C11.463839,10.6716303 12.8788901,11.5812745 13.4396686,12.884754 L14.6768572,15.7602746 C14.8956463,16.2683828 14.4643752,16.8158194 13.9080819,16.7364748 L13.9080819,16.7364748 Z" id="Path" fill="url(#linearGradient-11)"></path>
                <path d="M55.9189206,53.8747414 L59.1128886,53.5946808 C60.5605947,53.4677911 62.0564823,54.2612963 62.6754946,55.4847479 C63.394261,56.9051727 62.6941455,58.4107382 61.119698,58.8304185 C59.7635509,59.1917871 58.1590077,58.6322134 57.2978161,57.4975982 L55.3981081,54.9944364 C55.062533,54.5520337 55.354448,53.9241558 55.9189206,53.8747414 Z" id="Path" fill="url(#linearGradient-12)"></path>
                <path d="M56.485571,48.9933362 L58.7488685,46.8334362 C59.7747157,45.854405 61.3935672,45.5942183 62.6044144,46.2134766 C64.0103056,46.9326017 64.3869563,48.5792817 63.4413255,49.8727812 C62.6269456,50.986885 61.0665937,51.5030505 59.7251743,51.102321 L56.7655819,50.2181071 C56.24275,50.0618548 56.0857104,49.3749901 56.485571,48.9933362 Z" id="Path" fill="url(#linearGradient-13)"></path>
                <path d="M28.7725349,31.4263121 C28.1536216,31.6262642 27.4995857,31.2378579 27.3712693,30.5990208 L26.4927847,26.2264356 C26.4099457,25.8140519 26.6416709,25.4039117 27.0375347,25.2641135 C27.5001454,25.1007585 28.1429869,24.8319589 28.8075175,24.4225198 C26.8004922,23.7585835 25.1673616,22.6073866 24.0868171,21.0453484 C22.0497066,18.1003314 21.8900458,14.7807899 23.6594689,12.1655678 C25.4104211,9.57768837 28.6457577,8.31515768 31.7109386,9.0242445 C35.0618579,9.79937441 37.4156314,12.7373804 38.0072582,16.8836523 C38.031886,17.0562618 38.0537152,17.2280299 38.0726058,17.3990969 C38.8946984,16.9164635 39.5589492,16.3210942 39.974963,15.6546339 C41.0280811,13.9679412 41.1279916,11.450732 40.2299167,9.24186418 C39.6598392,7.83995593 38.7798153,6.76784246 37.7872872,6.22856069 C37.3445466,5.98808533 37.1086236,5.48904637 37.2272848,4.99870099 L38.233666,0.840229992 C38.3878696,0.203355889 39.0648541,-0.163176234 39.6756514,0.0712697148 C42.4923154,1.15221698 44.8098469,3.55626948 46.1404475,6.82841701 C47.8126187,10.940756 47.523522,15.6223836 45.3858015,19.0465284 C43.6944597,21.7555569 40.5751256,23.776251 36.9682731,24.6304644 C36.1580746,26.327954 34.9455755,27.8191817 33.3552637,29.0409087 C31.6570653,30.3452246 29.8977172,31.0628648 28.7725349,31.4263121 Z M30.0235149,15.2278059 C29.6061018,15.2271066 29.1579039,15.4353316 28.9421308,15.7544698 C28.6197306,16.2309335 29.0481982,16.9913404 29.3322575,17.4020415 C29.7218244,17.9653007 30.6288549,18.3855366 31.7713887,18.5737104 C31.7548768,18.3187924 31.7274504,18.0572843 31.6891094,17.7889053 C31.4852305,16.3603555 30.9567124,15.4134575 30.2752501,15.2558515 C30.1942303,15.2370621 30.1095722,15.2279479 30.0235149,15.2278059 Z" id="Shape" fill="url(#radialGradient-14)"></path>
                <path d="M42.5302326,22.2232585 L37.944338,17.7488372 C37.944338,17.7488372 38.2372158,22.0693067 36.8372093,24.7813953 C38.9694104,24.2915858 40.9313272,23.4068741 42.5302326,22.2232585 Z" id="Path" fill="url(#linearGradient-15)"></path>
                <path d="M29.3479935,17.6554951 C29.1394259,17.3500669 28.8544161,16.8546355 28.8431953,16.4211153 L22.4372093,16.4093023 C22.4471678,18.0547152 23.0004962,19.7581965 24.0901815,21.3535111 C25.1732745,22.9391478 26.8101167,24.1076314 28.8220159,24.7813953 C28.8220159,24.7813953 32.105238,23.7707495 31.7930177,18.8447582 C30.647649,18.6537588 29.7384792,18.2272124 29.3479935,17.6554951 L29.3479935,17.6554951 Z" id="Path" fill="url(#linearGradient-16)"></path>
                <path d="M42.9557422,32.457118 C41.491755,33.4395624 40.2424915,34.7337043 39.2966028,36.2475418 C39.0838123,36.5879633 38.5929168,36.5871101 38.3813691,36.2458354 C37.4407277,34.728443 36.1962971,33.4296086 34.735624,32.4416184 C34.4113982,32.2223495 34.4123648,31.7236619 34.737281,31.5056727 C36.2012682,30.5232283 37.4503937,29.2290864 38.3964205,27.7152489 C38.6090728,27.3748274 39.1001065,27.3756806 39.3116541,27.7169552 C40.2522956,29.2343477 41.4968642,30.5331821 42.9573993,31.5211723 C43.2816251,31.7404412 43.2806585,32.2391288 42.9557422,32.457118 L42.9557422,32.457118 Z" id="Path" fill="url(#linearGradient-17)"></path>
                <path d="M70.0813236,30.4478157 C68.6173364,31.4302601 67.3680729,32.724402 66.4221842,34.2382395 C66.2095318,34.578661 65.7184982,34.5778078 65.5069505,34.2365331 C64.5663091,32.7191407 63.3218785,31.4203062 61.8612054,30.4323161 C61.5369796,30.2130471 61.5379462,29.7143596 61.8628624,29.4963704 C63.3268496,28.513926 64.5759751,27.219784 65.5220019,25.7059466 C65.7346542,25.3655251 66.2256879,25.3663783 66.4372355,25.7076529 C67.377877,27.2250454 68.6224456,28.5238798 70.0829807,29.5118699 C70.4072065,29.7309967 70.4062399,30.2296843 70.0813236,30.4478157 Z" id="Path" fill="url(#linearGradient-18)"></path>
                <path d="M57.3557422,8.34549009 C55.891755,9.3279345 54.6424915,10.6220764 53.6966028,12.1359139 C53.4838123,12.4763354 52.9929168,12.4754822 52.7813691,12.1342075 C51.8407277,10.6168151 50.5962971,9.31798066 49.135624,8.32999053 C48.8113982,8.11072157 48.8123648,7.61203398 49.137281,7.39404479 C50.6012682,6.41160038 51.8503937,5.11745846 52.7964205,3.60362097 C53.0090728,3.2631995 53.5001065,3.26405269 53.7116541,3.60532734 C54.6522956,5.12271977 55.8968642,6.42155423 57.3573993,7.40954435 C57.6816251,7.62881332 57.6806585,8.1275009 57.3557422,8.34549009 Z" id="Path" fill="url(#linearGradient-19)"></path>
                <path d="M56.0818923,23.6092494 C55.0119826,24.3006857 54.0991886,25.2113445 53.4078794,26.276571 C53.2524248,26.5161097 52.8936195,26.5154234 52.7391339,26.2753356 C52.0518391,25.2075009 51.1423674,24.2935476 50.0749494,23.5982677 C49.8380991,23.4439745 49.8386528,23.0931087 50.0761952,22.9396392 C51.1461049,22.2482029 52.0588989,21.3375441 52.7502081,20.2723176 C52.9056627,20.0327789 53.264468,20.033328 53.4189536,20.273553 C54.1063869,21.3413877 55.0158586,22.255341 56.0831382,22.9506209 C56.3201268,23.104914 56.3194347,23.4557799 56.0818923,23.6092494 Z" id="Path" fill="url(#linearGradient-20)"></path>
                <path d="M60.4354816,14.9022726 C59.3655544,15.593709 58.4527455,16.5043678 57.761425,17.5695943 C57.6059679,17.809133 57.2471568,17.8084466 57.0926686,17.5683588 C56.4053626,16.5005242 55.4958761,15.5865708 54.4284406,14.8912909 C54.1915865,14.7369978 54.1921402,14.386132 54.4296865,14.2326625 C55.4996137,13.5412261 56.4124225,12.6305673 57.1037431,11.5653408 C57.2592002,11.3258021 57.6180113,11.3263512 57.7724994,11.5665763 C58.4599439,12.6344109 59.3694305,13.5483643 60.4367275,14.2436442 C60.6735816,14.3979373 60.6728894,14.7488031 60.4354816,14.9022726 Z" id="Path" fill="url(#linearGradient-21)"></path>
            </g>
        </g>
    </g>
</svg>