<?xml version="1.0" encoding="UTF-8"?>
<svg width="27px" height="27px" viewBox="0 0 27 27" version="1.1" xmlns="http://www.w3.org/2000/svg" xmlns:xlink="http://www.w3.org/1999/xlink">
    <title>Group 2</title>
    <g id="Page-1" stroke="none" stroke-width="1" fill="none" fill-rule="evenodd">
        <g id="Splashscreen-Copy-67" transform="translate(-1110, -234)" fill-rule="nonzero">
            <g id="Group-2" transform="translate(1110, 234)">
                <path d="M13.5,0 C6.05580142,0 0,6.05580142 0,13.5 C0,20.9441986 6.05580142,27 13.5,27 C20.9441986,27 27,20.9441986 27,13.5 C27,6.05580142 20.9441986,0 13.5,0 Z" id="Path" fill="#FFD01E"></path>
                <path d="M19.5200588,14.9799412 L14.6466079,14.9799412 L14.6466079,19.8533921 C14.6466079,20.4864306 14.1330384,21 13.5,21 C12.8669616,21 12.3533921,20.4864306 12.3533921,19.8533921 L12.3533921,14.9799412 L7.4799412,14.9799412 C6.84690278,14.9799412 6.33333333,14.4663718 6.33333333,13.8333333 C6.33333333,13.2002949 6.84690278,12.6867255 7.4799412,12.6867255 L12.3533921,12.6867255 L12.3533921,7.81327453 C12.3533921,7.18023611 12.8669616,6.66666667 13.5,6.66666667 C14.1330384,6.66666667 14.6466079,7.18023611 14.6466079,7.81327453 L14.6466079,12.6867255 L19.5200588,12.6867255 C20.1530972,12.6867255 20.6666667,13.2002949 20.6666667,13.8333333 C20.6666667,14.4663718 20.1530972,14.9799412 19.5200588,14.9799412 L19.5200588,14.9799412 Z" id="Path" fill="#000000"></path>
            </g>
        </g>
    </g>
</svg>