<?xml version="1.0" encoding="UTF-8"?>
<svg width="20px" height="20px" viewBox="0 0 20 20" version="1.1" xmlns="http://www.w3.org/2000/svg" xmlns:xlink="http://www.w3.org/1999/xlink">
    <title>magnifying-glass (3)</title>
    <g id="Page-1" stroke="none" stroke-width="1" fill="none" fill-rule="evenodd">
        <g id="Splashscreen-Copy-98" transform="translate(-1108, -196)" fill="#FFFFFF" fill-rule="nonzero">
            <g id="magnifying-glass-(3)" transform="translate(1108, 196)">
                <path d="M19.6526949,17.9767933 L15.8080994,14.1330044 C16.973272,12.6080037 17.6123134,10.7582685 17.6125666,8.80638908 C17.6125666,6.45417981 16.6962599,4.24259961 15.032379,2.57935706 C13.3687874,0.916114506 11.1570326,0 8.80404031,0 C6.45133747,0 4.23929321,0.916114447 2.57570166,2.57935706 C-0.858567219,6.01319484 -0.858567219,11.6001621 2.57570166,15.0334211 C4.23929321,16.696953 6.45133747,17.6130675 8.80404031,17.6130675 C10.7563293,17.6128143 12.6064527,16.9739069 14.1317733,15.8089788 L17.9763688,19.6527677 C18.2076161,19.8842559 18.5112187,20 18.8145318,20 C19.1178449,20 19.4214476,19.8842559 19.6526949,19.6527677 C20.1157684,19.1900807 20.1157684,18.4394803 19.6526949,17.9767933 Z M4.25202775,13.3574467 C1.74216935,10.8481148 1.74245878,6.76495271 4.25202775,4.25533148 C5.4678851,3.04001851 7.0845905,2.37043896 8.80404031,2.37043896 C10.5237795,2.37043896 12.1401955,3.04001851 13.3560529,4.25533148 C14.5719102,5.47093376 15.2416303,7.08729999 15.2416303,8.80638908 C15.2416303,10.5257675 14.5719102,12.1418444 13.3560529,13.3574467 C12.1401955,14.573049 10.5237795,15.2426285 8.80404031,15.2426285 C7.0845905,15.2426285 5.4678851,14.573049 4.25202775,13.3574467 Z" id="Shape"></path>
            </g>
        </g>
    </g>
</svg>