<?xml version="1.0" encoding="UTF-8"?>
<svg width="46px" height="46px" viewBox="0 0 46 46" version="1.1" xmlns="http://www.w3.org/2000/svg" xmlns:xlink="http://www.w3.org/1999/xlink">
    <title>button (3) copy</title>
    <g id="Page-1" stroke="none" stroke-width="1" fill="none" fill-rule="evenodd" opacity="0.24">
        <g id="Splashscreen-Copy-63" transform="translate(-95, -2182)" fill="#000000" fill-rule="nonzero">
            <g id="button-(3)-copy" transform="translate(95, 2182)">
                <path d="M15,22 C15,22.99414 15.80586,23.8 16.8,23.8 L22.2,23.8 L22.2,29.2 C22.2,30.19414 23.00586,31 24,31 C24.99414,31 25.8,30.19414 25.8,29.2 L25.8,23.8 L31.2,23.8 C32.19414,23.8 33,22.99414 33,22 C33,21.00586 32.19414,20.2 31.2,20.2 L25.8,20.2 L25.8,14.8 C25.8,13.80586 24.99414,13 24,13 C23.00586,13 22.2,13.80586 22.2,14.8 L22.2,20.2 L16.8,20.2 C15.80586,20.2 15,21.00586 15,22 Z" id="Path"></path>
                <path d="M14.5191268,5.84941516 L16.8751321,4.79319902 C17.804456,4.37646872 18.2458939,3.22336378 17.8608311,2.21751405 C17.4757682,1.21166432 16.4103792,0.733725528 15.4808732,1.15075152 L13.1248679,2.20696766 C12.195544,2.62369795 11.7541061,3.7768029 12.1391689,4.78265263 C12.5229567,5.78515117 13.5867065,6.2671311 14.5191268,5.84941516 Z" id="Path"></path>
                <path d="M23,0 C22.0075859,0 21.203125,0.804460938 21.203125,1.796875 C21.203125,2.78928906 22.0075859,3.59375 23,3.59375 C33.7253672,3.59375 42.40625,12.273375 42.40625,23 C42.40625,33.7253672 33.726625,42.40625 23,42.40625 C12.2746328,42.40625 3.59375,33.726625 3.59375,23 C3.59375,22.0075859 2.78928906,21.203125 1.796875,21.203125 C0.804460938,21.203125 0,22.0075859 0,23 C0,35.7113633 10.2868398,46 23,46 C35.7113633,46 46,35.7131602 46,23 C46,10.2886367 35.7131602,0 23,0 Z" id="Path"></path>
                <path d="M8.85476292,10.5102374 L10.5101839,8.85478527 C11.163272,8.2016848 11.163272,7.14281086 10.5101839,6.489794 C9.85709568,5.83677714 8.79824165,5.83669353 8.14523708,6.489794 L6.48981614,8.14524608 C5.83672795,8.79834655 5.83672795,9.8572205 6.48981614,10.5102374 C7.1427371,11.1631706 8.20167474,11.1633378 8.85476292,10.5102374 Z" id="Path"></path>
                <path d="M2.21740299,17.8608124 C3.22544292,18.2465992 4.37738999,17.8023434 4.79314363,16.8751256 L5.8493826,14.5190579 C6.2661219,13.5896544 5.78836991,12.5241872 4.78259701,12.1391291 C3.77652841,11.754162 2.62359567,12.1955035 2.20685637,13.124816 L1.1506174,15.4807925 C0.733878103,16.4102872 1.21163009,17.4757543 2.21740299,17.8608124 Z" id="Path"></path>
            </g>
        </g>
    </g>
</svg>