<?xml version="1.0" encoding="UTF-8"?>
<svg width="28px" height="28px" viewBox="0 0 28 28" version="1.1" xmlns="http://www.w3.org/2000/svg" xmlns:xlink="http://www.w3.org/1999/xlink">
    <title>Shape</title>
    <g id="Page-1" stroke="none" stroke-width="1" fill="none" fill-rule="evenodd">
        <g id="Splashscreen-Copy-85" transform="translate(-860, -1145)" fill="#FFFFFF" fill-rule="nonzero">
            <g id="gallery-(2)" transform="translate(860, 1145)">
                <path d="M13.1250986,8.4 C13.1250986,10.2363468 11.6364553,11.725 9.80012066,11.725 C7.96378604,11.725 6.4751427,10.2363468 6.4751427,8.4 C6.4751427,6.56365321 7.96378604,5.075 9.80012066,5.075 C11.6358154,5.07654391 13.1235547,6.5642931 13.1250986,8.4 L13.1250986,8.4 Z M28,8.134 L28,19.866 C28,24.962 24.9620201,28 19.8660539,28 L8.1341317,28 C4.56415537,28 1.98817245,26.502 0.784180427,23.842 C0.60591879,23.4415463 0.460767493,23.02716 0.350183304,22.603 C0.336183397,22.5456 0.320783499,22.4896 0.306783592,22.4322 C0.0994828351,21.592656 -0.00349364295,20.7307513 9.04205919e-05,19.866 L9.04205919e-05,8.134 C9.04205919e-05,3.038 3.03816548,0 8.1341317,0 L19.8660539,0 C24.9620201,0 28,3.038 28,8.134 L28,8.134 Z M25.9000139,8.134 C25.9000139,4.186 23.8140278,2.1 19.8660539,2.1 L8.1341317,2.1 C4.18615787,2.1 2.1001717,4.186 2.1001717,8.134 L2.1001717,19.866 C2.08867087,20.807917 2.25294521,21.7437172 2.58456849,22.6254 L7.82613374,19.11 C8.96709194,18.3551373 10.4673864,18.4346989 11.5221092,19.306 L11.9981061,19.698 C13.146866,20.6362494 14.79732,20.6362494 15.9460799,19.698 L21.7700413,14.7 C22.9188012,13.7617506 24.5692552,13.7617506 25.7180151,14.7 L25.9000139,14.8568 L25.9000139,8.134 Z" id="Shape"></path>
            </g>
        </g>
    </g>
</svg>