<?xml version="1.0" encoding="UTF-8"?>
<svg width="122px" height="122px" viewBox="0 0 122 122" version="1.1" xmlns="http://www.w3.org/2000/svg" xmlns:xlink="http://www.w3.org/1999/xlink">
    <title>Group 7</title>
    <g id="Page-1" stroke="none" stroke-width="1" fill="none" fill-rule="evenodd">
        <g id="Splashscreen-Copy-59" transform="translate(-883.000000, -2639.000000)">
            <g id="Group-7" transform="translate(883.000000, 2639.000000)">
                <circle id="Oval-Copy-4" fill="#FFD01E" cx="61" cy="61" r="61"></circle>
                <g id="youtube" transform="translate(34.000000, 43.500000)" fill="#FFFFFF" fill-rule="nonzero">
                    <path d="M52.887186,5.94609198 C52.2649218,3.62098787 50.4409756,1.78813393 48.1279194,1.1620552 C43.9022575,0 26.9992803,0 26.9992803,0 C26.9992803,0 10.0969622,0 5.87130034,1.11799774 C3.60273852,1.74341399 1.73429791,3.62131911 1.11203368,5.94609198 C0,10.1928273 0,19 0,19 C0,19 0,27.8515613 1.11203368,32.053908 C1.73495704,34.3786809 3.55824397,36.2115348 5.87162991,36.8376136 C10.1414567,38 26.9999394,38 26.9999394,38 C26.9999394,38 43.9022575,38 48.1279194,36.8820023 C50.4413053,36.2562547 52.2649218,34.4234008 52.8878452,32.0986279 C53.9997763,27.8515613 53.9997763,19.0447199 53.9997763,19.0447199 C53.9997763,19.0447199 54.0440438,10.1928273 52.887186,5.94609198 L52.887186,5.94609198 Z M21.6177494,27.1363739 L21.6177494,10.8636261 L35.6734063,19 L21.6177494,27.1363739 Z" id="Shape"></path>
                </g>
            </g>
        </g>
    </g>
</svg>