<?xml version="1.0" encoding="UTF-8"?>
<svg width="14px" height="14px" viewBox="0 0 14 14" version="1.1" xmlns="http://www.w3.org/2000/svg" xmlns:xlink="http://www.w3.org/1999/xlink">
    <title>redo (1)</title>
    <g id="Page-1" stroke="none" stroke-width="1" fill="none" fill-rule="evenodd">
        <g id="Password-Copy-9" transform="translate(-349, -1203)" fill="#A2A2A2" fill-rule="nonzero">
            <g id="redo-(1)" transform="translate(349, 1203)">
                <path d="M13.3000333,6.30074502 C12.9134524,6.30074502 12.6000667,6.61412846 12.6000667,7.00070653 C12.6172583,9.70516253 10.7105294,12.0403915 8.05725449,12.564427 C5.40397952,13.0884626 2.75260394,11.6534829 1.74030957,9.14556482 C0.72801521,6.63764677 1.64035374,3.76423302 3.91397077,2.29961042 C6.18758781,0.834987815 9.18113319,1.19230243 11.0461407,3.15091823 L9.36622074,3.15091823 C8.97963984,3.15091823 8.66625409,3.46430167 8.66625409,3.85087974 C8.66625409,4.2374578 8.97963984,4.55084125 9.36622074,4.55084125 L12.5370697,4.55084125 C12.9236506,4.55084125 13.2370363,4.2374578 13.2370363,3.85087974 L13.2370363,0.701052942 C13.2370363,0.314474875 12.9236506,0.00109143208 12.5370697,0.00109143208 C12.1504888,0.00109143208 11.837103,0.314474875 11.837103,0.701052942 L11.837103,1.93998481 C9.43400791,-0.357193786 5.74661792,-0.647181472 3.0139668,1.24610625 C0.281315666,3.13939398 -0.742637701,6.69358485 0.563865205,9.75052549 C1.87036811,12.8074661 5.14685336,14.5237237 8.40379422,13.8571631 C11.6607351,13.1906026 13.9995172,10.3251329 14,7.00070653 C14,6.61412846 13.6866143,6.30074502 13.3000333,6.30074502 L13.3000333,6.30074502 Z" id="Path"></path>
            </g>
        </g>
    </g>
</svg>