<?xml version="1.0" encoding="UTF-8"?>
<svg width="23px" height="21px" viewBox="0 0 23 21" version="1.1" xmlns="http://www.w3.org/2000/svg" xmlns:xlink="http://www.w3.org/1999/xlink">
    <title>history (3)</title>
    <g id="Page-1" stroke="none" stroke-width="1" fill="none" fill-rule="evenodd" opacity="0.8">
        <g id="Splashscreen-Copy-98" transform="translate(-1002, -198)" fill="#FFFFFF" fill-rule="nonzero">
            <g id="history-(3)" transform="translate(1002, 198)">
                <path d="M12.1819837,0 C7.56552171,0.0227043176 3.54665261,3.19281887 2.40430215,7.71270962 L1.72485817,6.67440614 C1.54966211,6.37832965 1.22776904,6.20332865 0.886725403,6.21874526 C0.545681767,6.23416188 0.240538161,6.4375076 0.0922042387,6.74820901 C-0.0561296832,7.05891042 -0.023710149,7.42681471 0.176616972,7.70614402 L2.21866172,10.8332477 C2.36050927,11.0338219 2.56964345,11.1754857 2.80714188,11.2318737 C3.04965099,11.2804874 3.30136246,11.2317028 3.50886271,11.0958719 L6.57192983,9.01082347 C6.85950043,8.8293572 7.02628139,8.50389153 7.00697512,8.16185183 C6.98766884,7.81981213 6.78534713,7.51561989 6.47922238,7.36837156 C6.17309763,7.22112323 5.81187696,7.25424731 5.53698442,7.45477515 L4.14375299,8.403974 C5.17421382,4.17712871 9.24343039,1.45780867 13.4959499,2.15421656 C17.7484695,2.85062444 20.7594816,6.72942817 20.4160974,11.0687916 C20.0727131,15.408155 16.4899836,18.7541706 12.1819837,18.7588705 C9.48491416,18.7515132 6.96154232,17.4130235 5.42374376,15.1740504 C5.23897867,14.8873581 4.91439018,14.7250672 4.57675809,14.7505663 C4.239126,14.7760653 3.9420172,14.9853089 3.80147828,15.2965692 C3.66093937,15.6078295 3.6992675,15.9717238 3.90149222,16.2461198 C6.43019478,19.9298826 11.0418912,21.5147294 15.2688245,20.1525957 C19.4957578,18.790462 22.3480383,14.8003407 22.2993872,10.3173788 C22.3184155,4.64787895 17.7925406,0.032547942 12.1819837,0 Z" id="Path"></path>
                <path d="M12.2478368,4.32686567 C11.7334283,4.32686567 11.3164179,4.75579253 11.3164179,5.28490063 L11.3164179,10.1229771 C11.3203803,10.3762257 11.4179622,10.6184164 11.5893236,10.8003079 L14.3835802,13.7002797 C14.7482126,14.069425 15.3324385,14.0723999 15.7006064,13.7069859 C16.0657635,13.3344624 16.0682653,12.728022 15.7061949,12.3523245 L13.1792556,9.72922478 L13.1792556,5.28490063 C13.1792556,4.75579253 12.7622452,4.32686567 12.2478368,4.32686567 L12.2478368,4.32686567 Z" id="Path"></path>
            </g>
        </g>
    </g>
</svg>