<?xml version="1.0" encoding="UTF-8"?>
<svg width="122px" height="122px" viewBox="0 0 122 122" version="1.1" xmlns="http://www.w3.org/2000/svg" xmlns:xlink="http://www.w3.org/1999/xlink">
    <title>Group 6</title>
    <g id="Page-1" stroke="none" stroke-width="1" fill="none" fill-rule="evenodd">
        <g id="Splashscreen-Copy-59" transform="translate(-662.000000, -2639.000000)">
            <g id="Group-6" transform="translate(662.000000, 2639.000000)">
                <circle id="Oval-Copy-3" fill="#FFD01E" cx="61" cy="61" r="61"></circle>
                <g id="tik-tok" transform="translate(37.000000, 32.500000)" fill="#FFFFFF" fill-rule="nonzero">
                    <path d="M46.9747615,13.5208623 C43.9170408,13.5208623 41.0958174,12.4983471 38.8302578,10.7733808 C36.2319277,8.7959547 34.3650647,5.89530721 33.7058026,2.55206275 C33.5425567,1.72602257 33.4546551,0.873574461 33.4462835,0 L24.7115832,0 L24.7115832,24.0924865 L24.7011187,37.2890593 C24.7011187,40.8171593 22.4250946,43.8086501 19.2700543,44.8607422 C18.3544124,45.1660179 17.3655192,45.3107334 16.3358145,45.2536922 C15.0214759,45.1808063 13.7898068,44.780462 12.7192906,44.1339958 C10.4411736,42.7586706 8.89661659,40.263649 8.85475867,37.4094795 C8.78883246,32.9486512 12.3614055,29.3117506 16.7774155,29.3117506 C17.6491065,29.3117506 18.4862648,29.4554097 19.2700543,29.7163201 L19.2700543,23.1312377 L19.2700543,20.7640304 C18.4433605,20.6404413 17.6020164,20.5760059 16.7512543,20.5760059 C11.9177116,20.5760059 7.3970568,22.6041353 4.16562579,26.2579371 C1.72321648,29.0191506 0.258189467,32.5419691 0.0321567287,36.2359109 C-0.263988017,41.0886329 1.49509084,45.7015708 4.90651088,49.1050253 C5.40775941,49.6046634 5.93412268,50.0683868 6.48455426,50.4961953 C9.40937604,52.768334 12.9850884,54 16.7512543,54 C17.6020164,54 18.4433605,53.936621 19.2700543,53.8130318 C22.788212,53.2869858 26.0342933,51.6613134 28.5959976,49.1050253 C31.7437128,45.9645938 33.4829092,41.7953092 33.5017452,37.3577199 L33.456748,17.6510632 C34.9584007,18.8204065 36.6002774,19.7879932 38.3624956,20.5390348 C41.1031425,21.7062655 44.0091282,22.2978033 47,22.2967469 L47,15.8944074 L47,13.5187496 C47.0019691,13.5208623 46.9768544,13.5208623 46.9747615,13.5208623 L46.9747615,13.5208623 Z" id="Path"></path>
                </g>
            </g>
        </g>
    </g>
</svg>