<?xml version="1.0" encoding="UTF-8"?>
<svg width="18px" height="18px" viewBox="0 0 18 18" version="1.1" xmlns="http://www.w3.org/2000/svg" xmlns:xlink="http://www.w3.org/1999/xlink">
    <title>appointment (1)</title>
    <g id="Page-1" stroke="none" stroke-width="1" fill="none" fill-rule="evenodd">
        <g id="Splashscreen-Copy-85" transform="translate(-285, -3201)" fill="#FFFFFF" fill-rule="nonzero">
            <g id="appointment-(1)" transform="translate(285, 3201)">
                <path d="M18,5 L18,3.125 C18,2.08946609 17.1365492,1.25 16.0714286,1.25 L13.5,1.25 L13.5,0.625 C13.5,0.279822031 13.2121831,0 12.8571429,0 C12.5021027,0 12.2142857,0.279822031 12.2142857,0.625 L12.2142857,1.25 L5.78571429,1.25 L5.78571429,0.625 C5.78571429,0.279822031 5.49789734,0 5.14285714,0 C4.78781695,0 4.5,0.279822031 4.5,0.625 L4.5,1.25 L1.92857143,1.25 C0.86345084,1.25 0,2.08946609 0,3.125 L0,5 L18,5 Z" id="Path"></path>
                <path d="M0,6.33333333 L0,16.0555556 C0,17.1294426 0.86345084,18 1.92857143,18 L16.0714286,18 C17.1365492,18 18,17.1294426 18,16.0555556 L18,6.33333333 L0,6.33333333 Z M12.6321429,10.0660185 L8.13214286,13.9549074 C7.8770467,14.1748082 7.49709375,14.1598464 7.25978571,13.9205556 L5.33121429,11.9761111 C5.08758929,11.7217915 5.09107347,11.3175376 5.3390452,11.067525 C5.58701693,10.8175124 5.98797072,10.8139995 6.24021429,11.0596296 L7.74835714,12.5801852 L11.7983571,9.08018519 C11.9718813,8.92249357 12.2165944,8.87212141 12.4375398,8.94861477 C12.6584852,9.02510812 12.8208835,9.21642608 12.8617188,9.44833096 C12.9025542,9.68023585 12.8153986,9.91622323 12.6340714,10.0647222 L12.6321429,10.0660185 Z" id="Shape"></path>
            </g>
        </g>
    </g>
</svg>