<svg fill="none" height="20" viewBox="0 0 20 20" width="20" xmlns="http://www.w3.org/2000/svg"><path clip-rule="evenodd" d="m7.70679 3.29303c.18747.18753.29278.44184.29278.707s-.10531.51947-.29278.707l-2.293 2.293h5.58601c1.8565 0 3.637.7375 4.9497 2.05025 1.3128 1.31272 2.0503 3.09322 2.0503 4.94972v2c0 .2652-.1054.5196-.2929.7071-.1875.1876-.4419.2929-.7071.2929s-.5196-.1053-.7071-.2929c-.1876-.1875-.2929-.4419-.2929-.7071v-2c0-1.3261-.5268-2.5978-1.4645-3.5355-.9377-.93769-2.2094-1.46447-3.5355-1.46447h-5.58601l2.293 2.29297c.09551.0923.17169.2026.2241.3246s.07999.2533.08115.386c.00115.1328-.02415.2645-.07443.3874s-.12454.2345-.21843.3284-.20554.1682-.32844.2185c-.1229.0502-.25458.0755-.38735.0744-.13278-.0012-.264-.0288-.38601-.0812-.122-.0524-.23235-.1286-.32459-.2241l-4-3.99997c-.18747-.18753-.29279-.44184-.29279-.707s.10532-.51947.29279-.707l4-4c.18752-.18747.44183-.29279.707-.29279.26516 0 .51947.10532.707.29279z" fill="rgb(0,0,0)" fill-rule="evenodd"/></svg>