<?xml version="1.0" encoding="UTF-8"?>
<svg width="20px" height="19px" viewBox="0 0 20 19" version="1.1" xmlns="http://www.w3.org/2000/svg" xmlns:xlink="http://www.w3.org/1999/xlink">
    <title>cloud-computing (2) copy</title>
    <g id="Page-1" stroke="none" stroke-width="1" fill="none" fill-rule="evenodd" opacity="0.424891881">
        <g id="Splashscreen-Copy-66" transform="translate(-1089, -1971)" fill="#000000" fill-rule="nonzero">
            <g id="cloud-computing-(2)-copy" transform="translate(1089, 1971)">
                <path d="M15.8538982,4.86931973 C15.1908616,1.59191673 11.9565552,-0.535326159 8.62984006,0.117882166 C6.19665917,0.595652314 4.29411717,2.46881238 3.80766072,4.86563097 C1.448916,5.13343606 -0.243047843,7.2342673 0.0286369097,9.55819571 C0.278754589,11.6969476 2.11749409,13.3105654 4.30280388,13.3090909 L7.37371003,13.3090909 C7.71294151,13.3090909 7.98792125,13.0381862 7.98792125,12.7039832 C7.98792125,12.3697802 7.71294151,12.0988765 7.37371003,12.0988765 L4.30280388,12.0988765 C2.60664644,12.0889906 1.23998538,10.7265046 1.24987025,9.05563696 C1.25990492,7.38462179 2.64289106,6.03807127 4.3390485,6.04795719 C4.65207003,6.04795719 4.91506804,5.81600701 4.94951541,5.50939603 C5.26133877,2.85377295 7.69946213,0.949922315 10.3951918,1.2571235 C12.6615277,1.51533778 14.449345,3.27665416 14.7114444,5.50939603 C14.7629656,5.82146642 15.0373462,6.05002293 15.3581559,6.04795719 C17.0543133,6.04795719 18.4292118,7.40247545 18.4292118,9.07349066 C18.4292118,10.7443582 17.0543133,12.0988765 15.3581559,12.0988765 L12.2872498,12.0988765 C11.9480183,12.0988765 11.6730386,12.3697802 11.6730386,12.7039832 C11.6730386,13.0381862 11.9480183,13.3090909 12.2872498,13.3090909 L15.3583057,13.3090909 C17.7326266,13.2944823 19.6455027,11.3863527 19.6309091,9.04722656 C19.6173458,6.91703265 18.0001177,5.12812422 15.8538982,4.86931973 L15.8538982,4.86931973 Z" id="Path"></path>
                <path d="M12.2203187,14.6899221 L10.6150035,16.2284801 L10.6150035,8.59220774 C10.6150035,8.25709533 10.3314946,7.98545455 9.98189538,7.98545455 C9.63214174,7.98545455 9.34863282,8.25709533 9.34863282,8.59220774 L9.34863282,16.2284801 L7.74331761,14.6899221 C7.50042027,14.4487595 7.09940027,14.4421016 6.84785561,14.6749788 C6.59631094,14.9077081 6.5893622,15.2917928 6.83225954,15.5328074 C6.83750968,15.5379858 6.84260546,15.5428682 6.84785561,15.5477506 L9.53346951,18.1215323 C9.59214782,18.1776063 9.66163532,18.22214 9.73807152,18.2526182 C9.89387792,18.3157939 10.0697585,18.3157939 10.2257192,18.2526182 C10.3021555,18.22214 10.3716429,18.1776063 10.4301668,18.1215323 L13.1157807,15.5477506 C13.3673254,15.3150214 13.3742742,14.9309367 13.1313768,14.6899221 C12.8883251,14.4489074 12.4874595,14.4422496 12.2359148,14.6749788 C12.2306647,14.6798613 12.2254145,14.6847437 12.2203187,14.6899221 Z" id="Path"></path>
            </g>
        </g>
    </g>
</svg>