<?xml version="1.0" encoding="UTF-8"?>
<svg width="20px" height="18px" viewBox="0 0 20 18" version="1.1" xmlns="http://www.w3.org/2000/svg" xmlns:xlink="http://www.w3.org/1999/xlink">
    <title>cloud-computing (2) copy</title>
    <g id="Page-1" stroke="none" stroke-width="1" fill="none" fill-rule="evenodd" opacity="0.424891881">
        <g id="cloud-computing-(2)-copy" transform="translate(0, 0)" fill="#FFFFFF" fill-rule="nonzero">
            <path d="M15.5939982,4.78949482 C14.9418311,1.56581973 11.7605461,-0.526550321 8.48836727,0.115949672 C6.09507459,0.585887522 4.22372181,2.42834005 3.74524005,4.78586653 C1.42516328,5.04928137 -0.239063452,7.11567276 0.0281674522,9.40150398 C0.274184841,11.5051943 2.08278107,13.0923594 4.23226611,13.0909091 L7.25282954,13.0909091 C7.58649985,13.0909091 7.85697172,12.8244455 7.85697172,12.4957212 C7.85697172,12.1669969 7.58649985,11.9005343 7.25282954,11.9005343 L4.23226611,11.9005343 C2.56391453,11.8908104 1.21965775,10.5506602 1.22938057,8.90718389 C1.23925074,7.26356242 2.59956498,5.93908649 4.26791655,5.94881035 C4.57580658,5.94881035 4.83449315,5.72066263 4.86837581,5.41907806 C5.17508731,2.80698979 7.57324144,0.934349818 10.2247788,1.23651491 C12.4539617,1.49049618 14.2124705,3.22293852 14.4702732,5.41907806 C14.5209498,5.72603255 14.7908324,5.95084222 15.1063829,5.94881035 C16.7747344,5.94881035 18.1270936,7.2811234 18.1270936,8.92474491 C18.1270936,10.5682212 16.7747344,11.9005343 15.1063829,11.9005343 L12.0858194,11.9005343 C11.7521491,11.9005343 11.4816773,12.1669969 11.4816773,12.4957212 C11.4816773,12.8244455 11.7521491,13.0909091 12.0858194,13.0909091 L15.1065302,13.0909091 C17.4419278,13.07654 19.3234453,11.1996912 19.3090909,8.89891137 C19.29575,6.80363868 17.7050338,5.04405661 15.5939982,4.78949482 L15.5939982,4.78949482 Z" id="Path"></path>
            <path d="M12.0199856,14.4491037 L10.4409871,15.9624394 L10.4409871,8.45135187 C10.4409871,8.12173312 10.1621258,7.85454545 9.81825775,7.85454545 C9.47423777,7.85454545 9.19537654,8.12173312 9.19537654,8.45135187 L9.19537654,15.9624394 L7.61637798,14.4491037 C7.37746256,14.2118946 6.98301666,14.2053458 6.73559568,14.4344054 C6.48817469,14.6633195 6.48133987,15.0411077 6.72025528,15.2781712 C6.72541936,15.2832647 6.7304316,15.2880671 6.73559568,15.2928695 L9.37718312,17.824458 C9.4348995,17.8796128 9.50324786,17.9234164 9.578431,17.953395 C9.7316832,18.015535 9.90468046,18.015535 10.0580845,17.953395 C10.1332677,17.9234164 10.201616,17.8796128 10.2591805,17.824458 L12.9007679,15.2928695 C13.1481889,15.0639554 13.1550238,14.6861672 12.9161083,14.4491037 C12.6770411,14.2120401 12.2827471,14.2054914 12.035326,14.4344054 C12.030162,14.4392078 12.0249979,14.4440102 12.0199856,14.4491037 Z" id="Path"></path>
        </g>
    </g>
</svg>