<?xml version="1.0" encoding="UTF-8"?>
<svg width="43px" height="45px" viewBox="0 0 43 45" version="1.1" xmlns="http://www.w3.org/2000/svg" xmlns:xlink="http://www.w3.org/1999/xlink">
    <title>search (14)</title>
    <g id="Page-1" stroke="none" stroke-width="1" fill="none" fill-rule="evenodd">
        <g id="Splashscreen-Copy-117" transform="translate(-540, -1698)" fill="#E4E4E4" fill-rule="nonzero">
            <g id="search-(14)" transform="translate(540, 1698)">
                <path d="M42.2830099,40.6235333 L31.6985956,29.583534 C34.4200344,26.3391005 35.9111269,22.2569392 35.9111269,18.0072324 C35.9111269,8.07820103 27.856105,0 17.9555634,0 C8.0550219,0 0,8.07820103 0,18.0072324 C0,27.9362637 8.0550219,36.0144648 17.9555634,36.0144648 C21.6723651,36.0144648 25.2142951,34.8901871 28.2425399,32.7559386 L38.907364,43.8797107 C39.3531303,44.3439841 39.95269,44.6 40.5951869,44.6 C41.203334,44.6 41.7802541,44.3674718 42.2182137,43.9446933 C43.1487803,43.0466805 43.178446,41.5575607 42.2830099,40.6235333 Z M17.9555634,4.69753888 C25.2736266,4.69753888 31.2270669,10.6681108 31.2270669,18.0072324 C31.2270669,25.346354 25.2736266,31.3169259 17.9555634,31.3169259 C10.6375003,31.3169259 4.68406003,25.346354 4.68406003,18.0072324 C4.68406003,10.6681108 10.6375003,4.69753888 17.9555634,4.69753888 Z" id="Shape"></path>
            </g>
        </g>
    </g>
</svg>