<?xml version="1.0" encoding="UTF-8"?>
<svg width="20px" height="18px" viewBox="0 0 20 18" version="1.1" xmlns="http://www.w3.org/2000/svg" xmlns:xlink="http://www.w3.org/1999/xlink">
    <title>attach-file</title>
    <g id="Page-1" stroke="none" stroke-width="1" fill="none" fill-rule="evenodd">
        <g id="attach-file" fill="#424242" fill-rule="nonzero">
            <path d="M5.21323225,18 C3.10464859,18.0005979 1.20346303,16.7330371 0.396698875,14.788695 C-0.410065286,12.844353 0.0365822862,10.6064044 1.52825225,9.11899379 L9.22002477,1.44131944 C9.39183584,1.26984347 9.64225595,1.20287448 9.87695425,1.26563904 C10.1116526,1.32840359 10.2949728,1.51136627 10.35786,1.74560679 C10.4207472,1.97984731 10.3536474,2.22977896 10.1818363,2.40125492 L2.48915725,10.0780245 C1.47529518,11.0409707 1.06440827,12.4769311 1.41584368,13.8290221 C1.76727909,15.1811131 2.82575461,16.2366453 4.18078001,16.5862699 C5.53580541,16.9358946 6.97422973,16.5246143 7.93821377,15.5119288 L17.8736088,5.59591296 C18.8208833,4.61962708 18.8083812,3.0654624 17.8455229,2.10448217 C16.8826647,1.14350194 15.3254626,1.13102429 14.3472688,2.07645111 L6.33549676,10.0780245 C6.04919893,10.3637639 5.9373869,10.7802381 6.04217918,11.1705654 C6.14697145,11.5608927 6.45244759,11.865773 6.84353769,11.9703609 C7.23462778,12.0749487 7.65191595,11.9633548 7.93821377,11.6776154 L13.0645513,6.56037217 C13.2351702,6.38389769 13.4879197,6.31303625 13.7256559,6.37502331 C13.9633921,6.43701036 14.149118,6.62219936 14.2114504,6.85941328 C14.2737827,7.09662721 14.2030212,7.34895038 14.0263628,7.5194029 L8.89911876,12.6375509 C7.92559718,13.6094234 6.3470039,13.609626 5.373232,12.6380033 C4.39946009,11.6663805 4.39925716,10.0908663 5.37277874,9.11899379 L13.3863638,1.12646784 C14.8908289,-0.3753126 17.3302516,-0.375515134 18.834967,1.12601547 C20.3396824,2.62754607 20.3398854,5.06221071 18.8354203,6.56399115 L8.90002527,16.4763881 C7.92421855,17.4551836 6.59669648,18.0037911 5.21323225,18 Z" id="Path"></path>
        </g>
    </g>
</svg>