<?xml version="1.0" encoding="UTF-8"?>
<svg width="21px" height="17px" viewBox="0 0 21 17" version="1.1" xmlns="http://www.w3.org/2000/svg" xmlns:xlink="http://www.w3.org/1999/xlink">
    <title>photo-camera (10)</title>
    <g id="Page-1" stroke="none" stroke-width="1" fill="none" fill-rule="evenodd">
        <g id="Group-2-Copy-2" transform="translate(-352, -62)" fill="#FFFFFF" fill-rule="nonzero">
            <g id="photo-camera-(10)" transform="translate(352.0512, 62.5405)">
                <path d="M17.6086957,2.79006512 L15.5217391,2.79006512 L14.3695652,1.04627442 C13.9347826,0.392352907 13.173913,0 12.3913043,0 L7.60869565,0 C6.82608696,0 6.06521739,0.392352907 5.63043478,1.04627442 L4.47826087,2.79006512 L2.39130435,2.79006512 C1.06521739,2.79006512 0,3.85813692 0,5.18777733 L0,13.6451622 C0,14.9748026 1.06521739,16.0428744 2.39130435,16.0428744 L17.6086957,16.0428744 C18.9347826,16.0428744 20,14.9748026 20,13.6451622 L20,5.18777733 C20,3.85813692 18.9347826,2.79006512 17.6086957,2.79006512 Z M10,14.0811099 C7.02173913,14.0811099 4.60869565,11.6616003 4.60869565,8.67535873 C4.60869565,5.68911716 7.02173913,3.29140494 10,3.29140494 C12.9782609,3.29140494 15.3913043,5.71091454 15.3913043,8.69715611 C15.3913043,11.6616003 12.9782609,14.0811099 10,14.0811099 Z M17.3043478,6.1686596 C17.2826087,6.1686596 17.2608696,6.1686596 17.2173913,6.1686596 L16.3478261,6.1686596 C15.9565217,6.14686221 15.6521739,5.81990146 15.673913,5.42754855 C15.6956522,5.05699303 15.9782609,4.77362704 16.3478261,4.75182965 L17.2173913,4.75182965 C17.6086957,4.73003227 17.9347826,5.03519564 17.9565217,5.42754855 C17.9782609,5.81990146 17.6956522,6.14686221 17.3043478,6.1686596 Z" id="Shape"></path>
                <path d="M10.2,5.61500605 C8.54782609,5.61500605 7.2,6.97135816 7.2,8.63398333 C7.2,10.2966085 8.54782609,11.631084 10.2,11.631084 C11.8521739,11.631084 13.2,10.2747319 13.2,8.61210668 C13.2,6.94948151 11.8521739,5.61500605 10.2,5.61500605 Z" id="Path"></path>
            </g>
        </g>
    </g>
</svg>