<?xml version="1.0" encoding="UTF-8"?>
<svg width="19px" height="19px" viewBox="0 0 19 19" version="1.1" xmlns="http://www.w3.org/2000/svg" xmlns:xlink="http://www.w3.org/1999/xlink">
    <title>Group 2 Copy</title>
    <g id="Page-1" stroke="none" stroke-width="1" fill="none" fill-rule="evenodd">
        <g id="Group-2-Copy-2" transform="translate(-232, -59)" fill-rule="nonzero">
            <g id="Group-2-Copy" transform="translate(232, 59)">
                <path d="M9.5,0 C4.26148989,0 0,4.26148989 0,9.5 C0,14.7385101 4.26148989,19 9.5,19 C14.7385101,19 19,14.7385101 19,9.5 C19,4.26148989 14.7385101,0 9.5,0 Z" id="Path" fill="#FFFFFF"></path>
                <path d="M13.9290072,10.4761652 L10.4761652,10.4761652 L10.4761652,13.9290072 C10.4761652,14.3775152 10.1123011,14.7413793 9.6637931,14.7413793 C9.21528513,14.7413793 8.85142097,14.3775152 8.85142097,13.9290072 L8.85142097,10.4761652 L5.39857903,10.4761652 C4.95007105,10.4761652 4.5862069,10.1123011 4.5862069,9.6637931 C4.5862069,9.21528513 4.95007105,8.85142097 5.39857903,8.85142097 L8.85142097,8.85142097 L8.85142097,5.39857903 C8.85142097,4.95007105 9.21528513,4.5862069 9.6637931,4.5862069 C10.1123011,4.5862069 10.4761652,4.95007105 10.4761652,5.39857903 L10.4761652,8.85142097 L13.9290072,8.85142097 C14.3775152,8.85142097 14.7413793,9.21528513 14.7413793,9.6637931 C14.7413793,10.1123011 14.3775152,10.4761652 13.9290072,10.4761652 L13.9290072,10.4761652 Z" id="Path" fill="#FFD01E"></path>
            </g>
        </g>
    </g>
</svg>