<?xml version="1.0" encoding="UTF-8"?>
<svg width="12px" height="11px" viewBox="0 0 12 11" version="1.1" xmlns="http://www.w3.org/2000/svg" xmlns:xlink="http://www.w3.org/1999/xlink">
    <title>Shape</title>
    <g id="Page-1" stroke="none" stroke-width="1" fill="none" fill-rule="evenodd">
        <g id="chat-(14)" fill="#FFFFFF" fill-rule="nonzero">
            <path d="M5.64194307,0 C2.53098402,0 0,2.25240702 0,5.02105263 C0,5.98881404 0.309568941,6.92626316 0.896705571,7.73688421 C0.785559592,8.95253684 0.487665799,9.85502456 0.0551179928,10.2825579 C-0.00205354331,10.3390912 -0.0163464273,10.4255649 0.0197619112,10.4969754 C0.051732836,10.5607614 0.117555328,10.6 0.188079427,10.6 C0.196730383,10.6 0.205381339,10.5994421 0.21422036,10.5981404 C0.290386386,10.5875404 2.05969498,10.3357439 3.33947229,9.60527368 C4.0661526,9.89519298 4.84022511,10.0421053 5.64194307,10.0421053 C8.75290211,10.0421053 11.283871,7.78969825 11.283871,5.02105263 C11.283871,2.25240702 8.75290211,0 5.64194307,0 Z M3.00904338,5.76491228 C2.59417361,5.76491228 2.25678632,5.43129123 2.25678632,5.02105263 C2.25678632,4.61081404 2.59417361,4.27719298 3.00904338,4.27719298 C3.42391314,4.27719298 3.76130043,4.61081404 3.76130043,5.02105263 C3.76130043,5.43129123 3.42391314,5.76491228 3.00904338,5.76491228 Z M5.64194307,5.76491228 C5.2270733,5.76491228 4.88968601,5.43129123 4.88968601,5.02105263 C4.88968601,4.61081404 5.2270733,4.27719298 5.64194307,4.27719298 C6.05681283,4.27719298 6.39420012,4.61081404 6.39420012,5.02105263 C6.39420012,5.43129123 6.05681283,5.76491228 5.64194307,5.76491228 Z M8.27484275,5.76491228 C7.85997299,5.76491228 7.5225857,5.43129123 7.5225857,5.02105263 C7.5225857,4.61081404 7.85997299,4.27719298 8.27484275,4.27719298 C8.68971252,4.27719298 9.02709981,4.61081404 9.02709981,5.02105263 C9.02709981,5.43129123 8.68971252,5.76491228 8.27484275,5.76491228 Z" id="Shape"></path>
        </g>
    </g>
</svg>