<?xml version="1.0" encoding="UTF-8"?>
<svg width="51px" height="51px" viewBox="0 0 51 51" version="1.1" xmlns="http://www.w3.org/2000/svg" xmlns:xlink="http://www.w3.org/1999/xlink">
    <title>Group Copy 2</title>
    <g id="Page-1" stroke="none" stroke-width="1" fill="none" fill-rule="evenodd">
        <g id="Splashscreen-Copy-110" transform="translate(-63, -532)">
            <g id="Group-Copy-2" transform="translate(63, 532)">
                <circle id="Oval" fill="#F0F0F0" cx="25.5" cy="25.5" r="25.5"></circle>
                <g id="user-(6)" transform="translate(16.3333, 15)" fill="#E1E1E1" fill-rule="nonzero">
                    <path d="M9.16666667,0 C6.11575225,0 3.63363363,2.50468333 3.63363363,5.58333333 C3.63363363,8.66198333 6.11575225,11.1666667 9.16666667,11.1666667 C12.2175811,11.1666667 14.6996997,8.66198333 14.6996997,5.58333333 C14.6996997,2.50468333 12.2175811,0 9.16666667,0 Z" id="Shape"></path>
                    <path d="M16.0097259,14.7123742 C14.5039481,13.1782107 12.5077741,12.3333333 10.3888889,12.3333333 L7.94444444,12.3333333 C5.8256,12.3333333 3.82938519,13.1782107 2.32360741,14.7123742 C0.825203704,16.2390157 0,18.2541792 0,20.3867925 C0,20.7254465 0.273614815,21 0.611111111,21 L17.7222222,21 C18.0597185,21 18.3333333,20.7254465 18.3333333,20.3867925 C18.3333333,18.2541792 17.5081296,16.2390157 16.0097259,14.7123742 Z" id="Shape"></path>
                </g>
            </g>
        </g>
    </g>
</svg>